<mxfile host="app.diagrams.net" modified="2023-11-24T22:44:28.443Z" agent="Mozilla/5.0 (Macintosh; Intel Mac OS X 10_15_7) AppleWebKit/537.36 (KHTML, like Gecko) Chrome/119.0.0.0 Safari/537.36" etag="WBm52LtT9ni2pSNI2w3n" version="22.1.4" type="device">
  <diagram name="Page-1" id="dAk5w9osInHre1rWLKS2">
    <mxGraphModel dx="1741" dy="664" grid="1" gridSize="10" guides="1" tooltips="1" connect="1" arrows="1" fold="1" page="1" pageScale="1" pageWidth="850" pageHeight="1100" math="0" shadow="0">
      <root>
        <mxCell id="0" />
        <mxCell id="1" parent="0" />
        <mxCell id="U_fhGjFR6v54zvVVLQxr-1" value="&lt;font style=&quot;font-size: 10px;&quot;&gt;&lt;br&gt;&lt;font color=&quot;#000000&quot;&gt;(&lt;/font&gt;CHIR,TKN)&lt;/font&gt;" style="ellipse;whiteSpace=wrap;html=1;aspect=fixed;fillColor=#f5f5f5;fontColor=#333333;strokeColor=#666666;strokeWidth=2;" parent="1" vertex="1">
          <mxGeometry x="-122" y="250" width="85" height="85" as="geometry" />
        </mxCell>
        <mxCell id="U_fhGjFR6v54zvVVLQxr-2" value="" style="endArrow=classicThin;html=1;rounded=0;exitX=1;exitY=0.5;exitDx=0;exitDy=0;entryX=0;entryY=0;entryDx=0;entryDy=0;endFill=1;" parent="1" source="U_fhGjFR6v54zvVVLQxr-1" target="U_fhGjFR6v54zvVVLQxr-13" edge="1">
          <mxGeometry width="50" height="50" relative="1" as="geometry">
            <mxPoint x="80" y="240" as="sourcePoint" />
            <mxPoint x="160" y="400" as="targetPoint" />
            <Array as="points" />
          </mxGeometry>
        </mxCell>
        <mxCell id="78VV7k429JzxsWAByb5Z-15" value="iTKN" style="edgeLabel;html=1;align=center;verticalAlign=middle;resizable=0;points=[];" parent="U_fhGjFR6v54zvVVLQxr-2" vertex="1" connectable="0">
          <mxGeometry x="-0.0458" y="2" relative="1" as="geometry">
            <mxPoint as="offset" />
          </mxGeometry>
        </mxCell>
        <mxCell id="U_fhGjFR6v54zvVVLQxr-3" value="" style="endArrow=classicThin;html=1;rounded=0;entryX=0;entryY=0;entryDx=0;entryDy=0;exitX=1;exitY=1;exitDx=0;exitDy=0;endFill=1;" parent="1" source="U_fhGjFR6v54zvVVLQxr-1" target="U_fhGjFR6v54zvVVLQxr-17" edge="1">
          <mxGeometry width="50" height="50" relative="1" as="geometry">
            <mxPoint x="80" y="280" as="sourcePoint" />
            <mxPoint x="150" y="360" as="targetPoint" />
            <Array as="points" />
          </mxGeometry>
        </mxCell>
        <mxCell id="78VV7k429JzxsWAByb5Z-14" value="iTKN" style="edgeLabel;html=1;align=center;verticalAlign=middle;resizable=0;points=[];" parent="U_fhGjFR6v54zvVVLQxr-3" vertex="1" connectable="0">
          <mxGeometry x="0.0066" y="-1" relative="1" as="geometry">
            <mxPoint as="offset" />
          </mxGeometry>
        </mxCell>
        <mxCell id="U_fhGjFR6v54zvVVLQxr-5" value="" style="endArrow=classicThin;html=1;rounded=0;exitX=0;exitY=1;exitDx=0;exitDy=0;endFill=1;entryX=0.758;entryY=0.056;entryDx=0;entryDy=0;entryPerimeter=0;" parent="1" source="U_fhGjFR6v54zvVVLQxr-1" target="U_fhGjFR6v54zvVVLQxr-19" edge="1">
          <mxGeometry width="50" height="50" relative="1" as="geometry">
            <mxPoint x="80" y="440" as="sourcePoint" />
            <mxPoint x="-200" y="400" as="targetPoint" />
            <Array as="points" />
          </mxGeometry>
        </mxCell>
        <mxCell id="78VV7k429JzxsWAByb5Z-12" value="iCHIR" style="edgeLabel;html=1;align=center;verticalAlign=middle;resizable=0;points=[];" parent="U_fhGjFR6v54zvVVLQxr-5" vertex="1" connectable="0">
          <mxGeometry x="-0.1574" y="2" relative="1" as="geometry">
            <mxPoint as="offset" />
          </mxGeometry>
        </mxCell>
        <mxCell id="U_fhGjFR6v54zvVVLQxr-13" value="&lt;font style=&quot;font-size: 10px;&quot;&gt;&lt;br&gt;(iCHIR,TKN)&lt;br&gt;&lt;/font&gt;" style="ellipse;whiteSpace=wrap;html=1;aspect=fixed;fillColor=#dae8fc;dashed=1;strokeColor=#6c8ebf;strokeWidth=2;" parent="1" vertex="1">
          <mxGeometry x="140" y="393.01" width="90" height="90" as="geometry" />
        </mxCell>
        <mxCell id="U_fhGjFR6v54zvVVLQxr-17" value="&lt;font style=&quot;font-size: 10px;&quot;&gt;&lt;br&gt;(iCHIR,TKN)&lt;br&gt;&lt;/font&gt;" style="ellipse;whiteSpace=wrap;html=1;aspect=fixed;fillColor=#dae8fc;strokeColor=#6c8ebf;strokeWidth=2;" parent="1" vertex="1">
          <mxGeometry x="10" y="393.01" width="90" height="90" as="geometry" />
        </mxCell>
        <mxCell id="U_fhGjFR6v54zvVVLQxr-18" value="&lt;font style=&quot;font-size: 10px;&quot;&gt;&lt;br&gt;(iCHIR,iTKN)&lt;br&gt;&lt;/font&gt;" style="ellipse;whiteSpace=wrap;html=1;aspect=fixed;fillColor=#e1d5e7;strokeColor=#9673a6;strokeWidth=2;" parent="1" vertex="1">
          <mxGeometry x="-125.75" y="390" width="90" height="90" as="geometry" />
        </mxCell>
        <mxCell id="U_fhGjFR6v54zvVVLQxr-19" value="&lt;font style=&quot;font-size: 10px;&quot;&gt;&lt;br&gt;(CHIR-iTKN)&lt;br&gt;&lt;/font&gt;" style="ellipse;whiteSpace=wrap;html=1;aspect=fixed;fillColor=#f8cecc;strokeColor=#b85450;strokeWidth=2;" parent="1" vertex="1">
          <mxGeometry x="-242.5" y="393.01" width="89" height="89" as="geometry" />
        </mxCell>
        <mxCell id="U_fhGjFR6v54zvVVLQxr-25" value="" style="endArrow=classic;html=1;rounded=0;exitX=0.5;exitY=1;exitDx=0;exitDy=0;" parent="1" source="U_fhGjFR6v54zvVVLQxr-18" edge="1">
          <mxGeometry width="50" height="50" relative="1" as="geometry">
            <mxPoint x="220" y="439.5" as="sourcePoint" />
            <mxPoint x="-81" y="510" as="targetPoint" />
            <Array as="points">
              <mxPoint x="-81" y="490" />
            </Array>
          </mxGeometry>
        </mxCell>
        <mxCell id="U_fhGjFR6v54zvVVLQxr-26" value="" style="endArrow=classic;html=1;rounded=0;exitX=0.5;exitY=1;exitDx=0;exitDy=0;" parent="1" source="U_fhGjFR6v54zvVVLQxr-19" edge="1">
          <mxGeometry width="50" height="50" relative="1" as="geometry">
            <mxPoint x="220" y="519.5" as="sourcePoint" />
            <mxPoint x="-200" y="510" as="targetPoint" />
          </mxGeometry>
        </mxCell>
        <mxCell id="U_fhGjFR6v54zvVVLQxr-34" value="&lt;h1&gt;&lt;font style=&quot;font-size: 14px;&quot;&gt;Native / Treasury Token&lt;/font&gt;&lt;/h1&gt;&lt;p&gt;CHIR treasury token gets minted and swap-deposited into the parent&lt;/p&gt;" style="text;html=1;strokeColor=none;fillColor=none;spacing=5;spacingTop=-20;whiteSpace=wrap;overflow=hidden;rounded=0;" parent="1" vertex="1">
          <mxGeometry x="-450" y="135" width="200" height="80" as="geometry" />
        </mxCell>
        <mxCell id="U_fhGjFR6v54zvVVLQxr-36" value="&lt;h1&gt;&lt;font style=&quot;font-size: 14px;&quot;&gt;Parent LP&lt;/font&gt;&lt;/h1&gt;&lt;p&gt;CHIR treasury token gets swap deposited into parent Uniswap LP of liquidity tree&lt;br&gt;&lt;/p&gt;" style="text;html=1;strokeColor=none;fillColor=none;spacing=5;spacingTop=-20;whiteSpace=wrap;overflow=hidden;rounded=0;" parent="1" vertex="1">
          <mxGeometry x="-450" y="225" width="180" height="120" as="geometry" />
        </mxCell>
        <mxCell id="U_fhGjFR6v54zvVVLQxr-37" value="&lt;h1 style=&quot;border-color: var(--border-color);&quot;&gt;&lt;font style=&quot;border-color: var(--border-color); font-size: 14px;&quot;&gt;Child LPs&lt;/font&gt;&lt;/h1&gt;&lt;p&gt;Various Uniswap LP pairngs of indexed treasury token in child Uniswap LPs of liquidity tree&lt;/p&gt;" style="text;html=1;strokeColor=none;fillColor=none;spacing=5;spacingTop=-20;whiteSpace=wrap;overflow=hidden;rounded=0;" parent="1" vertex="1">
          <mxGeometry x="-450" y="350" width="180" height="120" as="geometry" />
        </mxCell>
        <mxCell id="U_fhGjFR6v54zvVVLQxr-38" value="&lt;h1&gt;&lt;span style=&quot;font-size: 14px;&quot;&gt;Indexed Tokens&lt;/span&gt;&lt;/h1&gt;&lt;p&gt;CHIR treasury token is &#39;expanded&#39; with TKN token into various indexed treasury tokens (iCHIR)&lt;/p&gt;" style="text;html=1;strokeColor=none;fillColor=none;spacing=5;spacingTop=-20;whiteSpace=wrap;overflow=hidden;rounded=0;" parent="1" vertex="1">
          <mxGeometry x="-450" y="490" width="190" height="110" as="geometry" />
        </mxCell>
        <mxCell id="U_fhGjFR6v54zvVVLQxr-48" value="&lt;b&gt;&lt;font color=&quot;#006600&quot; style=&quot;font-size: 14px;&quot;&gt;Liquidity Tree&lt;/font&gt;&lt;/b&gt;" style="text;html=1;strokeColor=none;fillColor=none;align=center;verticalAlign=middle;whiteSpace=wrap;rounded=0;" parent="1" vertex="1">
          <mxGeometry x="125" y="240" width="120" height="30" as="geometry" />
        </mxCell>
        <mxCell id="U_fhGjFR6v54zvVVLQxr-52" value="" style="endArrow=classic;html=1;rounded=0;exitX=0.5;exitY=1;exitDx=0;exitDy=0;" parent="1" source="U_fhGjFR6v54zvVVLQxr-17" edge="1">
          <mxGeometry width="50" height="50" relative="1" as="geometry">
            <mxPoint x="60" y="470" as="sourcePoint" />
            <mxPoint x="55" y="510" as="targetPoint" />
          </mxGeometry>
        </mxCell>
        <mxCell id="U_fhGjFR6v54zvVVLQxr-53" value="" style="endArrow=none;dashed=1;html=1;strokeWidth=2;rounded=0;" parent="1" edge="1">
          <mxGeometry width="50" height="50" relative="1" as="geometry">
            <mxPoint x="-450" y="230" as="sourcePoint" />
            <mxPoint x="230" y="230" as="targetPoint" />
          </mxGeometry>
        </mxCell>
        <mxCell id="U_fhGjFR6v54zvVVLQxr-54" value="" style="endArrow=none;dashed=1;html=1;strokeWidth=2;rounded=0;exitX=0;exitY=0;exitDx=0;exitDy=0;" parent="1" source="U_fhGjFR6v54zvVVLQxr-38" edge="1">
          <mxGeometry width="50" height="50" relative="1" as="geometry">
            <mxPoint x="-440" y="490" as="sourcePoint" />
            <mxPoint x="240" y="490" as="targetPoint" />
          </mxGeometry>
        </mxCell>
        <mxCell id="anGgULUjalW6GFHMLSsY-1" value="" style="endArrow=none;html=1;rounded=0;exitX=0;exitY=0;exitDx=0;exitDy=0;startArrow=classicThin;startFill=1;" parent="1" source="U_fhGjFR6v54zvVVLQxr-19" edge="1">
          <mxGeometry width="50" height="50" relative="1" as="geometry">
            <mxPoint x="-240" y="390" as="sourcePoint" />
            <mxPoint x="-240" y="390" as="targetPoint" />
          </mxGeometry>
        </mxCell>
        <mxCell id="anGgULUjalW6GFHMLSsY-2" value="" style="endArrow=none;html=1;rounded=0;exitX=1;exitY=0;exitDx=0;exitDy=0;startArrow=classicThin;startFill=1;" parent="1" source="U_fhGjFR6v54zvVVLQxr-17" edge="1">
          <mxGeometry width="50" height="50" relative="1" as="geometry">
            <mxPoint x="110" y="400" as="sourcePoint" />
            <mxPoint x="100" y="390" as="targetPoint" />
          </mxGeometry>
        </mxCell>
        <mxCell id="anGgULUjalW6GFHMLSsY-3" value="" style="endArrow=none;html=1;rounded=0;exitX=1;exitY=0;exitDx=0;exitDy=0;startArrow=classicThin;startFill=1;" parent="1" source="U_fhGjFR6v54zvVVLQxr-13" edge="1">
          <mxGeometry width="50" height="50" relative="1" as="geometry">
            <mxPoint x="280" y="390" as="sourcePoint" />
            <mxPoint x="230" y="390" as="targetPoint" />
          </mxGeometry>
        </mxCell>
        <mxCell id="78VV7k429JzxsWAByb5Z-1" value="iCHIR" style="endArrow=none;html=1;rounded=0;entryX=0.329;entryY=0.957;entryDx=0;entryDy=0;entryPerimeter=0;exitX=0.35;exitY=0;exitDx=0;exitDy=0;exitPerimeter=0;startArrow=classicThin;startFill=1;" parent="1" source="U_fhGjFR6v54zvVVLQxr-18" target="U_fhGjFR6v54zvVVLQxr-1" edge="1">
          <mxGeometry width="50" height="50" relative="1" as="geometry">
            <mxPoint x="-130" y="400" as="sourcePoint" />
            <mxPoint x="-80" y="350" as="targetPoint" />
          </mxGeometry>
        </mxCell>
        <mxCell id="78VV7k429JzxsWAByb5Z-2" value="" style="endArrow=none;html=1;rounded=0;entryX=0.614;entryY=1;entryDx=0;entryDy=0;entryPerimeter=0;startArrow=classicThin;startFill=1;" parent="1" target="U_fhGjFR6v54zvVVLQxr-1" edge="1">
          <mxGeometry width="50" height="50" relative="1" as="geometry">
            <mxPoint x="-70" y="390" as="sourcePoint" />
            <mxPoint x="-20" y="370" as="targetPoint" />
          </mxGeometry>
        </mxCell>
        <mxCell id="78VV7k429JzxsWAByb5Z-13" value="iTKN" style="edgeLabel;html=1;align=center;verticalAlign=middle;resizable=0;points=[];" parent="78VV7k429JzxsWAByb5Z-2" vertex="1" connectable="0">
          <mxGeometry x="-0.275" y="1" relative="1" as="geometry">
            <mxPoint as="offset" />
          </mxGeometry>
        </mxCell>
        <mxCell id="78VV7k429JzxsWAByb5Z-5" value="&lt;font style=&quot;font-size: 10px;&quot;&gt;iCHIR&lt;/font&gt;&lt;font style=&quot;font-size: 8.33333px;&quot;&gt;&lt;sub&gt;a&lt;/sub&gt;&lt;/font&gt;&lt;font style=&quot;&quot;&gt;&lt;br&gt;&lt;/font&gt;" style="rounded=1;whiteSpace=wrap;html=1;fillColor=#f8cecc;strokeColor=#b85450;strokeWidth=2;" parent="1" vertex="1">
          <mxGeometry x="-224.75" y="520" width="53.5" height="30" as="geometry" />
        </mxCell>
        <mxCell id="78VV7k429JzxsWAByb5Z-6" value="&lt;font style=&quot;font-size: 10px;&quot;&gt;iCHIR&lt;sub&gt;b&lt;/sub&gt;&lt;br&gt;&lt;/font&gt;" style="rounded=1;whiteSpace=wrap;html=1;fillColor=#e1d5e7;strokeColor=#9673a6;strokeWidth=2;" parent="1" vertex="1">
          <mxGeometry x="-106.5" y="520" width="54" height="30" as="geometry" />
        </mxCell>
        <mxCell id="78VV7k429JzxsWAByb5Z-7" value="&lt;font style=&quot;font-size: 10px;&quot;&gt;iCHIR&lt;/font&gt;&lt;font style=&quot;&quot;&gt;&lt;span style=&quot;font-size: 8.33333px;&quot;&gt;&lt;sub&gt;c&lt;/sub&gt;&lt;/span&gt;&lt;br&gt;&lt;/font&gt;" style="rounded=1;whiteSpace=wrap;html=1;fillColor=#dae8fc;strokeColor=#6c8ebf;strokeWidth=2;" parent="1" vertex="1">
          <mxGeometry x="27.75" y="520" width="54.5" height="30" as="geometry" />
        </mxCell>
        <mxCell id="78VV7k429JzxsWAByb5Z-8" value="&lt;font style=&quot;font-size: 10px;&quot;&gt;iCHIR&lt;/font&gt;&lt;font style=&quot;&quot;&gt;&lt;span style=&quot;font-size: 8.33333px;&quot;&gt;&lt;sub&gt;d&lt;/sub&gt;&lt;/span&gt;&lt;br&gt;&lt;/font&gt;" style="rounded=1;whiteSpace=wrap;html=1;fillColor=#dae8fc;strokeColor=#6c8ebf;strokeWidth=2;dashed=1;" parent="1" vertex="1">
          <mxGeometry x="157.5" y="520" width="55" height="30" as="geometry" />
        </mxCell>
        <mxCell id="78VV7k429JzxsWAByb5Z-9" value="" style="endArrow=classic;html=1;rounded=0;exitX=0.5;exitY=1;exitDx=0;exitDy=0;" parent="1" source="U_fhGjFR6v54zvVVLQxr-13" edge="1">
          <mxGeometry width="50" height="50" relative="1" as="geometry">
            <mxPoint x="220" y="470" as="sourcePoint" />
            <mxPoint x="185" y="510" as="targetPoint" />
          </mxGeometry>
        </mxCell>
        <mxCell id="78VV7k429JzxsWAByb5Z-10" value="&lt;font style=&quot;&quot;&gt;&lt;font style=&quot;font-size: 12px;&quot;&gt;CHIR&lt;/font&gt;&lt;br&gt;&lt;/font&gt;" style="rounded=1;whiteSpace=wrap;html=1;strokeWidth=2;" parent="1" vertex="1">
          <mxGeometry x="-115.25" y="95" width="69" height="40" as="geometry" />
        </mxCell>
        <mxCell id="78VV7k429JzxsWAByb5Z-18" value="" style="curved=1;endArrow=classic;html=1;rounded=0;exitX=1;exitY=0.5;exitDx=0;exitDy=0;entryX=1;entryY=0;entryDx=0;entryDy=0;" parent="1" source="78VV7k429JzxsWAByb5Z-10" target="U_fhGjFR6v54zvVVLQxr-1" edge="1">
          <mxGeometry width="50" height="50" relative="1" as="geometry">
            <mxPoint x="50" y="210" as="sourcePoint" />
            <mxPoint x="-10" y="260" as="targetPoint" />
            <Array as="points">
              <mxPoint x="50" y="200" />
            </Array>
          </mxGeometry>
        </mxCell>
        <mxCell id="78VV7k429JzxsWAByb5Z-20" value="(1) Swap" style="edgeLabel;html=1;align=center;verticalAlign=middle;resizable=0;points=[];" parent="78VV7k429JzxsWAByb5Z-18" vertex="1" connectable="0">
          <mxGeometry x="0.0106" y="-10" relative="1" as="geometry">
            <mxPoint x="-44" y="-4" as="offset" />
          </mxGeometry>
        </mxCell>
        <mxCell id="78VV7k429JzxsWAByb5Z-19" value="" style="curved=1;endArrow=classic;html=1;rounded=0;exitX=0;exitY=0;exitDx=0;exitDy=0;entryX=0;entryY=0.5;entryDx=0;entryDy=0;" parent="1" source="U_fhGjFR6v54zvVVLQxr-1" target="2UoVGlsXdKEKuQGdsdA1-6" edge="1">
          <mxGeometry width="50" height="50" relative="1" as="geometry">
            <mxPoint x="-160" y="220" as="sourcePoint" />
            <mxPoint x="-170" y="150" as="targetPoint" />
            <Array as="points">
              <mxPoint x="-150" y="240" />
              <mxPoint x="-160" y="200" />
            </Array>
          </mxGeometry>
        </mxCell>
        <mxCell id="2UoVGlsXdKEKuQGdsdA1-9" value="TKN" style="edgeLabel;html=1;align=center;verticalAlign=middle;resizable=0;points=[];" parent="78VV7k429JzxsWAByb5Z-19" vertex="1" connectable="0">
          <mxGeometry x="0.0649" y="-2" relative="1" as="geometry">
            <mxPoint x="1" y="1" as="offset" />
          </mxGeometry>
        </mxCell>
        <mxCell id="2UoVGlsXdKEKuQGdsdA1-1" value="" style="shape=image;verticalLabelPosition=bottom;labelBackgroundColor=default;verticalAlign=top;aspect=fixed;imageAspect=0;image=data:image/png,iVBORw0KGgoAAAANSUhEUgAAAQoAAAAmCAYAAAA80tUwAAABW2lDQ1BJQ0MgUHJvZmlsZQAAKJF1kL1Lw1AUxU9qJaKBKjiJQsDFIUpptepYq6hQMNQP/AAhTdtU6MfrS6wIbrq5+A/o5P+gOOmsmyII7urkIBZBS7wvVdsqXrjcH4fzLvcdwNdmMJbzA8gXHJ6YnlCXV1ZV+QEdkCCjByOGabOorsfJgu/ZXJVb8lJdD4pdkd3ya7Hr6OZZfXq83Ff2/vqbqj2Vtk2aH9RBk3EHkDRifcthgneIuzkdRXwg2KrxseBkjU89z0IiRnxF3GlmjRTxPbGWbNCtBs7nNs2vG8T1SrqwOC/2UPdCxwziUBHCKCKYwhiW/vEPe/4YimDYBscGLGTh0NsoKQw5pIlnUYCJIWjeziB1WOT8O7+6xuaA8TLgM+ra+iRw0g8ESnVtgP4TyAAXa8zgxk+qUsVvZ8KhGiscaH1z3Zc+QD4Dqtx13w9dt0oZttwB56VPyc5iK2/hwVsAAAXiZVhJZk1NACoAAAAIAAQBGgAFAAAAAQAAAD4BGwAFAAAAAQAAAEYBKAADAAAAAQACAACHaQAEAAAAAQAAAE4AAAAAAAAAkAAAAAEAAACQAAAAAQADkoYABwAABWkAAAB4oAIABAAAAAEAAAEKoAMABAAAAAEAAAAmAAAAAEFTQ0lJAAAAQUFBRkFuamFiVk5yYkJ0RkVKNjlUZHNrVGVKTDBrZWF2cTdFZ1lRK2NOSkFnOHNqVHRPMG9ZbjdPRHR4SEx0bQpmVjdiMTV6dnpOMDZpV3RGMmgrb3JSQUk4YXZRSDBBU0lTaEN2QVFWUWdLRUlJQVFpaUNKb0JJQzFGLzlnL3FqCmZ4Q3FrRmcvS0FWMVY2ZWJtZDJaK2VhYjJYalcwQjNtOGF3aUNWZXRXYnV1TnVTZW9yYWpXK2E0bTloYVdoZGEKd00yc2JNaHR4YzlRalRsTmdNNjlHcE5kZnZVWXpkT0VyM0xwaCtxYWdHMVpqS04zNUYzcjY5cnZ2YStqOC83ZAplL2J1ZStEQmc0LzBEVHh4N09TcDhNUnBRcE5uTWxtV0M3ck5uR0dzMURlNDVGYjNtRi9kTjBuelRsajhLMGxHCjNacEJIT2R5WTFQemhvMmJOcmRzNFJMSHZJcXY0V3Y1T2w3TmEzanQ1YTNidHUvWXFleTZwNDJ2NTNXOGdidDQKSTIvbFcvbDJ2b01yb1RoeHFLR2JOS2haaG1VSE1sYUNCcG5PREJySzJwUms0Z2FOWmtqSzFKTzZScGdvTjVBZwpqSXF5NGtTYlRObFd6a3djS2pxR0hTdG5helJBWjFnYlZOYUtwOHZWdmI4bjZGZFBIZW1QK05YU1JUVkxORHJvClVjUUdHZkg2NVljTzlENGNMcGRoa2d3TmxVWHFqRlVjNW51OUliOTZ2RlN2WExYc2V2U3h4OGNGQVE2emRUUEYKNVJNaWdLKy94UE5JamhHQlZ5MmRMUGdPRmYzS3lzcGgxK0NSbzBPM2RRSEd4NFFVenpIcThDYStoVGZINU9WSQp3dEp5R1dxeUVvS0pMaytXUlF2RVpycG0wTm5hU002aEF2c2tTZEVKSVJheE90RkNpYlZacFYxWUVrclNzc1ZuCk1xVmt2ZE9qUURLT2s4L0V4YzBNWVdubi8yZEY0OTNPSm5JczJSc3Q2R1pXSURXMWNxSmt6bENZcGJCOGxpb0oKM1JhOEdIa2hFTTNXQlZaRlN4T2JhRXhNWjIxeGNJYjlKK1pHK0lhNTQzd2pieG4xcTRNQzRLb2FDTHBHeDBMagpRbGYxczFRUWt4dzBTTW9SdWw4VTF0YlhVVzZoTFBOTmZQUG9pR1VTelJKTVI2S1ZDUE1ScjFCalR3b21CM1N0Ck9CakV6cy9IaXNhNEZwT2I3aUE0VWVaOFB1RzlxNzJ0cjd1Y2F6bmxTdXZGR1dlNlFPQmJ6T2VmdjFDbjhHMGkKNUtRaDBnNkl3WnVmOUJhbnl0emZNOWlsaUEyOHZ0amJwNDRPOFozbExuWW1Zd1Y5ajVhZFZieEtaSUFhakNqRApTc1RXVTJsR2JOdWEvc2VvejRpNFU5TXh1Zm4yNFB4YnlNSlV6QXZWMEFpdDRJWk82SVlETUFURGNCSlVtSVpaCmVCcWVoWXZ3TXJ3QmI4SmI4RGE4QysvREIzQUZQb0tQNFV2NENyNkJiK0U3V0lMdllSbFc0VWU0Q3RmZ092d08KTitFV3FrRU5TRUc3VVE4NmlIeklqNEpvREkyajAwaEhOanFMWnRFNWRBRTloeTZpbDlBbDlBcDZEMzJJUGtXTAphQW45akg1QnY2RnIwaFhwRStrejZYUHBDMmxSK2xwYWtuNlNmcFd1U3pla1A2US9wVnZTWDdnSzEyQVpOK01XCjNJNDc4Rjdjancvak1OWndHbWR4SGhjd3grZnhNL2dGL0NLK2hPZndBbjROdjQ1WDhGVjhvOXdFQ1ZVZTd3ejgKWitHYmZ3UDlKSjQ5AMXbmosAAAAJcEhZcwAAFiUAABYlAUlSJPAAAAhRaVRYdFhNTDpjb20uYWRvYmUueG1wAAAAAAA8eDp4bXBtZXRhIHhtbG5zOng9ImFkb2JlOm5zOm1ldGEvIiB4OnhtcHRrPSJYTVAgQ29yZSA2LjAuMCI+CiAgIDxyZGY6UkRGIHhtbG5zOnJkZj0iaHR0cDovL3d3dy53My5vcmcvMTk5OS8wMi8yMi1yZGYtc3ludGF4LW5zIyI+CiAgICAgIDxyZGY6RGVzY3JpcHRpb24gcmRmOmFib3V0PSIiCiAgICAgICAgICAgIHhtbG5zOnRpZmY9Imh0dHA6Ly9ucy5hZG9iZS5jb20vdGlmZi8xLjAvIgogICAgICAgICAgICB4bWxuczpleGlmPSJodHRwOi8vbnMuYWRvYmUuY29tL2V4aWYvMS4wLyI+CiAgICAgICAgIDx0aWZmOllSZXNvbHV0aW9uPjE0NDwvdGlmZjpZUmVzb2x1dGlvbj4KICAgICAgICAgPHRpZmY6WFJlc29sdXRpb24+MTQ0PC90aWZmOlhSZXNvbHV0aW9uPgogICAgICAgICA8dGlmZjpSZXNvbHV0aW9uVW5pdD4yPC90aWZmOlJlc29sdXRpb25Vbml0PgogICAgICAgICA8ZXhpZjpQaXhlbFlEaW1lbnNpb24+Mzg8L2V4aWY6UGl4ZWxZRGltZW5zaW9uPgogICAgICAgICA8ZXhpZjpVc2VyQ29tbWVudD5BQUFGQW5qYWJWTnJiQnRGRUo2OVRkc2tUZUpMMGtlYXZxN0VnWVErY05KQWc4c2pUdE8wb1luN09EdHhITHRtJiN4QTtmVjdiMTV6dnpOMDZpV3RGMmgrb3JSQUk4YXZRSDBBU0lTaEN2QVFWUWdLRUlJQVFpaUNKb0JJQzFGLzlnL3FqJiN4QTtmeENxa0ZnL0tBVjFWNmVibWQyWitlYWIyWGpXMEIzbThhd2lDVmV0V2J1dU51U2VvcmFqVythNG05aGFXaGRhJiN4QTt3TTJzYk1odHhjOVFqVGxOZ002OUdwTmRmdlVZemRPRXIzTHBoK3FhZ0cxWmpLTjM1RjNyNjlydnZhK2o4LzdkJiN4QTtlL2J1ZStEQmc0LzBEVHh4N09TcDhNUnBRcE5uTWxtV0M3ck5uR0dzMURlNDVGYjNtRi9kTjBuelRsajhLMGxHJiN4QTszWnBCSE9keVkxUHpobzJiTnJkczRSTEh2SXF2NFd2NU9sN05hM2p0NWEzYnR1L1lxZXk2cDQydjUzVzhnYnQ0JiN4QTtJMi9sVy9sMnZvTXJvVGh4cUtHYk5LaFpobVVITWxhQ0Jwbk9EQnJLMnBSazRnYU5aa2pLMUpPNlJwZ29ONUFnJiN4QTtqSXF5NGtTYlRObFd6a3djS2pxR0hTdG5helJBWjFnYlZOYUtwOHZWdmI4bjZGZFBIZW1QK05YU1JUVkxORHJvJiN4QTtVY1FHR2ZINjVZY085RDRjTHBkaGtnd05sVVhxakZVYzVudTlJYjk2dkZTdlhMWHNldlN4eDhjRkFRNnpkVFBGJiN4QTs1Uk1pZ0srL3hQTklqaEdCVnkyZExQZ09GZjNLeXNwaDErQ1JvME8zZFFIR3g0UVV6ekhxOENhK2hUZkg1T1ZJJiN4QTt3dEp5R1dxeUVvS0pMaytXUlF2RVpycG0wTm5hU002aEF2c2tTZEVKSVJheE90RkNpYlZacFYxWUVrclNzc1ZuJiN4QTtNcVZrdmRPalFES09rOC9FeGMwTVlXbm4vMmRGNDkzT0puSXMyUnN0NkdaV0lEVzFjcUpremxDWXBiQjhsaW9KJiN4QTszUmE4R0hraEVNM1dCVlpGU3hPYmFFeE1aMjF4Y0liOUorWkcrSWE1NDN3amJ4bjFxNE1DNEtvYUNMcEd4MExqJiN4QTtRbGYxczFRUWt4dzBTTW9SdWw4VTF0YlhVVzZoTFBOTmZQUG9pR1VTelJKTVI2S1ZDUE1ScjFCalR3b21CM1N0JiN4QTtPQmpFenMvSGlzYTRGcE9iN2lBNFVlWjhQdUc5cTcydHI3dWNhem5sU3V2RkdXZTZRT0Jiek9lZnYxQ244RzBpJiN4QTs1S1FoMGc2SXdadWY5QmFueXR6Zk05aWxpQTI4dnRqYnA0NE84WjNsTG5ZbVl3VjlqNWFkVmJ4S1pJQWFqQ2pEJiN4QTtTc1RXVTJsR2JOdWEvc2VvejRpNFU5TXh1Zm4yNFB4YnlNSlV6QXZWMEFpdDRJWk82SVlETUFURGNCSlVtSVpaJiN4QTtlQnFlaFl2d01yd0JiOEpiOERhOEMrL0RCM0FGUG9LUDRVdjRDcjZCYitFN1dJTHZZUmxXNFVlNEN0ZmdPdndPJiN4QTtOK0VXcWtFTlNFRzdVUTg2aUh6SWo0Sm9ESTJqMDBoSE5qcUxadEU1ZEFFOWh5NmlsOUFsOUFwNkQzMklQa1dMJiN4QTthQW45akg1QnY2RnIwaFhwRStrejZYUHBDMmxSK2xwYWtuNlNmcFd1U3pla1A2US9wVnZTWDdnSzEyQVpOK01XJiN4QTszSTQ3OEY3Y2p3L2pNTlp3R21keEhoY3d4K2Z4TS9nRi9DSytoT2Z3QW40TnY0NVg4RlY4bzl3RUNWVWU3d3o4JiN4QTtaK0diZndQOUpKNDk8L2V4aWY6VXNlckNvbW1lbnQ+CiAgICAgICAgIDxleGlmOlBpeGVsWERpbWVuc2lvbj4yNjY8L2V4aWY6UGl4ZWxYRGltZW5zaW9uPgogICAgICA8L3JkZjpEZXNjcmlwdGlvbj4KICAgPC9yZGY6UkRGPgo8L3g6eG1wbWV0YT4Kpp92+QAADJtJREFUeAHtmgvUVUUVx3mICoggCYWAIkQpGvFSlBIIhNI0jTBCVBaGVqvM8FmupHyQmEn6iSxLaimCUEE81mppLyGQkJWVomKGCIIgBAYCimhW/x/OhvGs+zjn3nPuvfDNXuv/zZyZvffM7D2PPfPdBg0CBQsECwQLFLFA4yL1obr2LNBcXWokvFt7XQs9KmCBeum3TjLIROHXwgShnxAoewv0UBNvC1uFo7NvLrSQkgXqpd/OlfGYrHuEWcJK4X/CLUKgbC2wQOqxNbg9g6YWS+cmYZ2wSnhWeEp4WnheeEl4RYDnYSFQPAtk7Td60VIgaqkJ6qZevCUwUccKpwob3fdrSgNlZ4HeUm2bBOlOIe2o4mbpfFB4RDA/W5vbXPlMpfcLXxICFbdAJfxGdI+/tghHFe9S9hwPqAmbpE2Un+6+KVsjBMrOAvOl2hatpUyQrOgJKbZ21ivfKquGDnK9Wfvto7LffwXz1bBq27OtOsCVgw790XXmevdNR690ZSFJ3wK9pBK7c837j8vznUVUIbUNmglcLW3y3UNhoMQWqITfOqlXFv1tV75j4l6mLDBC+mzi3OZ0H6r0s8JH3HdIsrHAPKllM+4h+FEc/jBfKJsaDZYm8zVp1U+p1EZWWUWV8tunNawrhLSvoiVZa5KkbPIML0lDECrFAj2d3ec6YUJN/jVqviCq+ICrSyvhYdr0s0GlrT+tftaynmr4rSbswYu4TZ6uNdGj+tEJNgiLJmzEM5QxX5D+wCpSSpd4+lekpLPSagaowd8JZ1a6YddeNfxWpaHub7ahsjsEJuUuoZEQKHsLcCqxSVg0YS2eoIwfVeCbtE79ptLlv0/UWaMHWDpS/WW+sllUmqrht0qPMWd7RBAYHSzLyREKs7AAP2iLRhPWzsPKmE9IJ1hFmenB8j7RTnbAdmyox5Zpk6TilfBbK3Xqk0Ip74OtJddPOF04RIgSbx0Dhe5CY6EgTVbtS8IaYZPgT0rKAPVjhfpGLKaFwuPCZzIaPA+XTPRoNGHNnahMNKpgApRL/JbCfE37aUUq5farFPkFbiw3liJcokwl/Hat+mb/6cBXy4U4vj9CfA8J/n/O+O3FeIFbw5FC9AB6RWXnCHnpStXMdNip1CbPUq+cRk8T6hOxw64XzB7blacsbSp0Kllb+Mf6QZpGVOG/Ra2whg7QlBMTuzDZ4yykNIaZtd8uVic5INj8WghsEoxxqlCI2PDh3SxcJiB7hsAPJZG/QXhM2CFcJHQQNgjUbRNi0TxxIQBOiSVx8DK1cXYwe7yp7yYpD/fj0lcomrDm+KUsk8b68rry5SyIppLf4+mrU/5Ap0UaAPbh16acmllS1n47Xp3fLdztDWKJ8oxvtVcWzTJu+Ige+K+ZT5P0YfOHlJ87QPYbKat7r7TI35dVjwAhC5OpvhOTzgzIz5nTpjlSyEZBGFuMZonB+kJ6azGBAvWDIrqGFeA9UKq6qKOciNgmjYir0Liz9hsbBGPhB3FQS8E29hV7S3L/Ga1ixj80R/V3XR31i7z6H3nlhXTvE2ntCTy7r7R+Z7hq9BeyiK66S2+caMI8cJIy0ajiKKtMmB5M7xP+0M/Shy0o7uDN/cqU8ln77VD1k4hxitffMcqzwME9Xnk0+4wKlkcL3fc0paZjtMfDVWWiwHsIj5tFyT9lphfl3s8wStm1wtX7i0IuhgVmiyduNGHqfqGMOZv0FqtImC729MQ6RRLqz8XOom1XATAfzUarlL9QaCSkRVn7jWsHB0Jvr8MLlbcxDfHK/ezh+uDhk80yFz2vQtPRPhdD3LKrPEXXxBUSH86gA+zggeJZIOmpZFqJKthczOGcPEmjiqaSsVMXPXVCXOKN5mdC57gCjg/+twXrd6XTF9Q20WG5VCm/HeJ1lI3DfM7TQKFNL98YeW8zHazXvOQ3nI+pp1fxdy9fLMup9gmB8CVQPAvc6Nhuise+j+s55TjRLnAlRyodJ4x333GS08VEeGu0yDIx0i+K51KBe20S2ixmHsrbJhEqg3eAJ7tLeQ4xTulyqVJ+443QaLQyDd3Hg0pZ8Pko3xj7S8B0LMonHLec+43t9NxbAmVjgY9JLc6eW6L6k528+Yp/27ZKoIvNyWTpRxJfLxV/kkMkQbdSY71Dmhgfi+0+4UNCGlQNv7G41wrmry4lDmSyp+OiEnXsFeN+845Ttq4cRUG2qAV+KQ4WaJz/dORT9itV2OQhZfHHpT+J0WSTvE9wZ0aOK2qt0p3qGH3kX9lnp9zJavhtkBsPY1pSxnj894kOZejZ+6pvk2dBTEXsbucLrWPyx2Vr7/R+TmnHPEJ9VX6e4L/Ssvv2EoYJxwm1SBYNlBpN2JjsdDOfxY0q7MHL5OpMYZGUq+uTAqd0Wid0kSYTV+N3xrVTGJBYurBAtfw2Td0yX431unir8j/1vgtlj1Gl6Vidh3Gwyv+Rp+59xZfpy5QVO524384TNgg8EjF5cFI51FjC1wvrBR69lgiLBHT/RGATgEh5+V8rvCbwmHeGwL15o8BDzYsCY/m+YHLKlkxsXPk2rKRK6Xu50YS1OVsZ85mN1+rypZ+KyMT12w1O7pF8iqtczgZIJIwdLs+gL9XwW1ONg/cVxkSExHsUxKa9RbiLD49YQ18QWMuHeeVjlLd58oBX7meX6eNvfkG+/BRVmLLP52Ny5Szcp4RWwigBuT8LpVJnCSKPnunCEQLE3RmDUN5dgM4StgtEEl8VqNstbBWGClAjgTCRuuuEcug2CbNZoYt7Xjl0koTR84zw4RRgJyg6wTYBnxSim1Rp/HHeJ5iUyJgNRhZSXsW6q9U243pcaJhyP6rlt35uTIxrpjcmHrIpszVhVb9x5dT58/73Xjl2ilJ/FSDz5WhFrm9bqAh0ysXgyroqZdL0cd91SpHBQaVQMwmtFNARXYhjXPm7So8ToPnC1L259363gdwbwqmuzJIRylC31ApKSNnB2YTQA/YITYRSaZYETVdW6fcKdI4T52mvDysK8FLVU1guWF93KM8pV4tEJEk/B2bQuWr57Rw3JsbFWoCIFP4psPh9aqcPNn7z1VWucqBXRh1vOD4RKROJ4eeiGywn8C4BRZuEQvR1VT7hGA5XSviP3LWuLGlCdII8i711RJiIYo5Am0ZEDgPdB5sGstPct5/YLvmOClv4FQnyzcXLNYg2wKsCi60U6iYhNjzTlVVKVNHS6+C5yv9QmCIQWvrt4jvqiJoM8M0W1go+L/mfC7VIPdQp+rdBYC6nSdXyG2NgPdicuVh51sOjwr+EYwWf8LlFfeuUbysQkWwU/ircLWCjNUIbATpbeFFYKbQXitIJ4kAJYJIUIk7UZo7hQqXIsBg/6MqSJDyKWbv3xhS0RcCEYFEgf2kO2a+5OgxNZFAqfUWCGHu1cEGpSiR3jWBjzTLlVDnP6ycTK432iKz6enprKXu5G+OkDDpVLb/ZUL6hDD5lHrMRsEn0F3LRN1XItRw+5ix+XyiwNokEfyxQ95bAIUH9H4SjhVhkCx5BjB6XHhMjMnPjCkT4hjt5dHAPTEKExciBLjkEZ7i653LUhaKDywKE3YTmpAcjHa9BsUaJDlsWGSAHaB/hEuFkIXqd4G1shIA+6hPRneK2RdcxpiSLk50OOUIYiPAlyel9h/iR3yYkpXESQHZ9DkGinq2ufmqO+lAULBAsUMQC3VV/n8DmYLvNk8qz6BYLcWmCGJF5WWAXY3ESno8RosQGYtcVv+4KfaBjlV+YI3+syjpEyu194qFIOZ8jBfS+IeSKNlQcKFggWCCfBfhX16sCiwicL7QRLDIYpXxc4pUUHXYv5C7/psB9yKfv6AP9nPAseJ+66cP6ki+SGSIeIo7rPEE2JsqQneyVkz1G4EGWum8JgYIFggUSWmCw+G1hkg4UWMjklwoswLi0WIzIsbmcImwQxgtR+osKrE02kyjdqwLqWfB++zyw1gk8vkwR2OSM/PcJNqferoKogw2Mh5+bBV+fPgMFCwQLxLFAVzHZomUR9hNeFwjRqUtCg8T8bwH53cJdQi7icXSXQLv352JQGRvMFmGzsEzgxRa9c4S+QpTGqQB98LHRsVm8INAOG8VQIVCwQLBAGRZgUbKgWFwsNv7dcqZQCjWWUB+hRQzhieK5vQhfZ9WfJrQtwjdf9fR9huPj/YMNJclDqhMNSbBAsEA+CxymiiECUUHTfEwpl/9W+i5JQSfXCXufyHWVSaGJoCJYIFigGhbgDYEfgrRKoXF0EU2AE1PQF1QECwQL1IAFuEasEb5dZl/4V+5w4VHBNgr+FdtLCBQsECyQkgX+D5ppf0L3GmmtAAAAAElFTkSuQmCC;" parent="1" vertex="1">
          <mxGeometry x="-120.5" y="283.65" width="82" height="11.71" as="geometry" />
        </mxCell>
        <mxCell id="2UoVGlsXdKEKuQGdsdA1-2" value="" style="shape=image;verticalLabelPosition=bottom;labelBackgroundColor=default;verticalAlign=top;aspect=fixed;imageAspect=0;image=data:image/png,iVBORw0KGgoAAAANSUhEUgAAAQoAAAAmCAYAAAA80tUwAAABW2lDQ1BJQ0MgUHJvZmlsZQAAKJF1kL1Lw1AUxU9qJaKBKjiJQsDFIUpptepYq6hQMNQP/AAhTdtU6MfrS6wIbrq5+A/o5P+gOOmsmyII7urkIBZBS7wvVdsqXrjcH4fzLvcdwNdmMJbzA8gXHJ6YnlCXV1ZV+QEdkCCjByOGabOorsfJgu/ZXJVb8lJdD4pdkd3ya7Hr6OZZfXq83Ff2/vqbqj2Vtk2aH9RBk3EHkDRifcthgneIuzkdRXwg2KrxseBkjU89z0IiRnxF3GlmjRTxPbGWbNCtBs7nNs2vG8T1SrqwOC/2UPdCxwziUBHCKCKYwhiW/vEPe/4YimDYBscGLGTh0NsoKQw5pIlnUYCJIWjeziB1WOT8O7+6xuaA8TLgM+ra+iRw0g8ESnVtgP4TyAAXa8zgxk+qUsVvZ8KhGiscaH1z3Zc+QD4Dqtx13w9dt0oZttwB56VPyc5iK2/hwVsAAAXiZVhJZk1NACoAAAAIAAQBGgAFAAAAAQAAAD4BGwAFAAAAAQAAAEYBKAADAAAAAQACAACHaQAEAAAAAQAAAE4AAAAAAAAAkAAAAAEAAACQAAAAAQADkoYABwAABWkAAAB4oAIABAAAAAEAAAEKoAMABAAAAAEAAAAmAAAAAEFTQ0lJAAAAQUFBRkFuamFiVk5yYkJ0RkVKNjlUZHNrVGVKTDBrZWF2cTdFZ1lRK2NOSkFnOHNqVHRPMG9ZbjdPRHR4SEx0bQpmVjdiMTV6dnpOMDZpV3RGMmgrb3JSQUk4YXZRSDBBU0lTaEN2QVFWUWdLRUlJQVFpaUNKb0JJQzFGLzlnL3FqCmZ4Q3FrRmcvS0FWMVY2ZWJtZDJaK2VhYjJYalcwQjNtOGF3aUNWZXRXYnV1TnVTZW9yYWpXK2E0bTloYVdoZGEKd00yc2JNaHR4YzlRalRsTmdNNjlHcE5kZnZVWXpkT0VyM0xwaCtxYWdHMVpqS04zNUYzcjY5cnZ2YStqOC83ZAplL2J1ZStEQmc0LzBEVHh4N09TcDhNUnBRcE5uTWxtV0M3ck5uR0dzMURlNDVGYjNtRi9kTjBuelRsajhLMGxHCjNacEJIT2R5WTFQemhvMmJOcmRzNFJMSHZJcXY0V3Y1T2w3TmEzanQ1YTNidHUvWXFleTZwNDJ2NTNXOGdidDQKSTIvbFcvbDJ2b01yb1RoeHFLR2JOS2haaG1VSE1sYUNCcG5PREJySzJwUms0Z2FOWmtqSzFKTzZScGdvTjVBZwpqSXF5NGtTYlRObFd6a3djS2pxR0hTdG5helJBWjFnYlZOYUtwOHZWdmI4bjZGZFBIZW1QK05YU1JUVkxORHJvClVjUUdHZkg2NVljTzlENGNMcGRoa2d3TmxVWHFqRlVjNW51OUliOTZ2RlN2WExYc2V2U3h4OGNGQVE2emRUUEYKNVJNaWdLKy94UE5JamhHQlZ5MmRMUGdPRmYzS3lzcGgxK0NSbzBPM2RRSEd4NFFVenpIcThDYStoVGZINU9WSQp3dEp5R1dxeUVvS0pMaytXUlF2RVpycG0wTm5hU002aEF2c2tTZEVKSVJheE90RkNpYlZacFYxWUVrclNzc1ZuCk1xVmt2ZE9qUURLT2s4L0V4YzBNWVdubi8yZEY0OTNPSm5JczJSc3Q2R1pXSURXMWNxSmt6bENZcGJCOGxpb0oKM1JhOEdIa2hFTTNXQlZaRlN4T2JhRXhNWjIxeGNJYjlKK1pHK0lhNTQzd2pieG4xcTRNQzRLb2FDTHBHeDBMagpRbGYxczFRUWt4dzBTTW9SdWw4VTF0YlhVVzZoTFBOTmZQUG9pR1VTelJKTVI2S1ZDUE1ScjFCalR3b21CM1N0Ck9CakV6cy9IaXNhNEZwT2I3aUE0VWVaOFB1RzlxNzJ0cjd1Y2F6bmxTdXZGR1dlNlFPQmJ6T2VmdjFDbjhHMGkKNUtRaDBnNkl3WnVmOUJhbnl0emZNOWlsaUEyOHZ0amJwNDRPOFozbExuWW1Zd1Y5ajVhZFZieEtaSUFhakNqRApTc1RXVTJsR2JOdWEvc2VvejRpNFU5TXh1Zm4yNFB4YnlNSlV6QXZWMEFpdDRJWk82SVlETUFURGNCSlVtSVpaCmVCcWVoWXZ3TXJ3QmI4SmI4RGE4QysvREIzQUZQb0tQNFV2NENyNkJiK0U3V0lMdllSbFc0VWU0Q3RmZ092d08KTitFV3FrRU5TRUc3VVE4NmlIeklqNEpvREkyajAwaEhOanFMWnRFNWRBRTloeTZpbDlBbDlBcDZEMzJJUGtXTAphQW45akg1QnY2RnIwaFhwRStrejZYUHBDMmxSK2xwYWtuNlNmcFd1U3pla1A2US9wVnZTWDdnSzEyQVpOK01XCjNJNDc4Rjdjancvak1OWndHbWR4SGhjd3grZnhNL2dGL0NLK2hPZndBbjROdjQ1WDhGVjhvOXdFQ1ZVZTd3ejgKWitHYmZ3UDlKSjQ5AMXbmosAAAAJcEhZcwAAFiUAABYlAUlSJPAAAAhRaVRYdFhNTDpjb20uYWRvYmUueG1wAAAAAAA8eDp4bXBtZXRhIHhtbG5zOng9ImFkb2JlOm5zOm1ldGEvIiB4OnhtcHRrPSJYTVAgQ29yZSA2LjAuMCI+CiAgIDxyZGY6UkRGIHhtbG5zOnJkZj0iaHR0cDovL3d3dy53My5vcmcvMTk5OS8wMi8yMi1yZGYtc3ludGF4LW5zIyI+CiAgICAgIDxyZGY6RGVzY3JpcHRpb24gcmRmOmFib3V0PSIiCiAgICAgICAgICAgIHhtbG5zOnRpZmY9Imh0dHA6Ly9ucy5hZG9iZS5jb20vdGlmZi8xLjAvIgogICAgICAgICAgICB4bWxuczpleGlmPSJodHRwOi8vbnMuYWRvYmUuY29tL2V4aWYvMS4wLyI+CiAgICAgICAgIDx0aWZmOllSZXNvbHV0aW9uPjE0NDwvdGlmZjpZUmVzb2x1dGlvbj4KICAgICAgICAgPHRpZmY6WFJlc29sdXRpb24+MTQ0PC90aWZmOlhSZXNvbHV0aW9uPgogICAgICAgICA8dGlmZjpSZXNvbHV0aW9uVW5pdD4yPC90aWZmOlJlc29sdXRpb25Vbml0PgogICAgICAgICA8ZXhpZjpQaXhlbFlEaW1lbnNpb24+Mzg8L2V4aWY6UGl4ZWxZRGltZW5zaW9uPgogICAgICAgICA8ZXhpZjpVc2VyQ29tbWVudD5BQUFGQW5qYWJWTnJiQnRGRUo2OVRkc2tUZUpMMGtlYXZxN0VnWVErY05KQWc4c2pUdE8wb1luN09EdHhITHRtJiN4QTtmVjdiMTV6dnpOMDZpV3RGMmgrb3JSQUk4YXZRSDBBU0lTaEN2QVFWUWdLRUlJQVFpaUNKb0JJQzFGLzlnL3FqJiN4QTtmeENxa0ZnL0tBVjFWNmVibWQyWitlYWIyWGpXMEIzbThhd2lDVmV0V2J1dU51U2VvcmFqVythNG05aGFXaGRhJiN4QTt3TTJzYk1odHhjOVFqVGxOZ002OUdwTmRmdlVZemRPRXIzTHBoK3FhZ0cxWmpLTjM1RjNyNjlydnZhK2o4LzdkJiN4QTtlL2J1ZStEQmc0LzBEVHh4N09TcDhNUnBRcE5uTWxtV0M3ck5uR0dzMURlNDVGYjNtRi9kTjBuelRsajhLMGxHJiN4QTszWnBCSE9keVkxUHpobzJiTnJkczRSTEh2SXF2NFd2NU9sN05hM2p0NWEzYnR1L1lxZXk2cDQydjUzVzhnYnQ0JiN4QTtJMi9sVy9sMnZvTXJvVGh4cUtHYk5LaFpobVVITWxhQ0Jwbk9EQnJLMnBSazRnYU5aa2pLMUpPNlJwZ29ONUFnJiN4QTtqSXF5NGtTYlRObFd6a3djS2pxR0hTdG5helJBWjFnYlZOYUtwOHZWdmI4bjZGZFBIZW1QK05YU1JUVkxORHJvJiN4QTtVY1FHR2ZINjVZY085RDRjTHBkaGtnd05sVVhxakZVYzVudTlJYjk2dkZTdlhMWHNldlN4eDhjRkFRNnpkVFBGJiN4QTs1Uk1pZ0srL3hQTklqaEdCVnkyZExQZ09GZjNLeXNwaDErQ1JvME8zZFFIR3g0UVV6ekhxOENhK2hUZkg1T1ZJJiN4QTt3dEp5R1dxeUVvS0pMaytXUlF2RVpycG0wTm5hU002aEF2c2tTZEVKSVJheE90RkNpYlZacFYxWUVrclNzc1ZuJiN4QTtNcVZrdmRPalFES09rOC9FeGMwTVlXbm4vMmRGNDkzT0puSXMyUnN0NkdaV0lEVzFjcUpremxDWXBiQjhsaW9KJiN4QTszUmE4R0hraEVNM1dCVlpGU3hPYmFFeE1aMjF4Y0liOUorWkcrSWE1NDN3amJ4bjFxNE1DNEtvYUNMcEd4MExqJiN4QTtRbGYxczFRUWt4dzBTTW9SdWw4VTF0YlhVVzZoTFBOTmZQUG9pR1VTelJKTVI2S1ZDUE1ScjFCalR3b21CM1N0JiN4QTtPQmpFenMvSGlzYTRGcE9iN2lBNFVlWjhQdUc5cTcydHI3dWNhem5sU3V2RkdXZTZRT0Jiek9lZnYxQ244RzBpJiN4QTs1S1FoMGc2SXdadWY5QmFueXR6Zk05aWxpQTI4dnRqYnA0NE84WjNsTG5ZbVl3VjlqNWFkVmJ4S1pJQWFqQ2pEJiN4QTtTc1RXVTJsR2JOdWEvc2VvejRpNFU5TXh1Zm4yNFB4YnlNSlV6QXZWMEFpdDRJWk82SVlETUFURGNCSlVtSVpaJiN4QTtlQnFlaFl2d01yd0JiOEpiOERhOEMrL0RCM0FGUG9LUDRVdjRDcjZCYitFN1dJTHZZUmxXNFVlNEN0ZmdPdndPJiN4QTtOK0VXcWtFTlNFRzdVUTg2aUh6SWo0Sm9ESTJqMDBoSE5qcUxadEU1ZEFFOWh5NmlsOUFsOUFwNkQzMklQa1dMJiN4QTthQW45akg1QnY2RnIwaFhwRStrejZYUHBDMmxSK2xwYWtuNlNmcFd1U3pla1A2US9wVnZTWDdnSzEyQVpOK01XJiN4QTszSTQ3OEY3Y2p3L2pNTlp3R21keEhoY3d4K2Z4TS9nRi9DSytoT2Z3QW40TnY0NVg4RlY4bzl3RUNWVWU3d3o4JiN4QTtaK0diZndQOUpKNDk8L2V4aWY6VXNlckNvbW1lbnQ+CiAgICAgICAgIDxleGlmOlBpeGVsWERpbWVuc2lvbj4yNjY8L2V4aWY6UGl4ZWxYRGltZW5zaW9uPgogICAgICA8L3JkZjpEZXNjcmlwdGlvbj4KICAgPC9yZGY6UkRGPgo8L3g6eG1wbWV0YT4Kpp92+QAADJtJREFUeAHtmgvUVUUVx3mICoggCYWAIkQpGvFSlBIIhNI0jTBCVBaGVqvM8FmupHyQmEn6iSxLaimCUEE81mppLyGQkJWVomKGCIIgBAYCimhW/x/OhvGs+zjn3nPuvfDNXuv/zZyZvffM7D2PPfPdBg0CBQsECwQLFLFA4yL1obr2LNBcXWokvFt7XQs9KmCBeum3TjLIROHXwgShnxAoewv0UBNvC1uFo7NvLrSQkgXqpd/OlfGYrHuEWcJK4X/CLUKgbC2wQOqxNbg9g6YWS+cmYZ2wSnhWeEp4WnheeEl4RYDnYSFQPAtk7Td60VIgaqkJ6qZevCUwUccKpwob3fdrSgNlZ4HeUm2bBOlOIe2o4mbpfFB4RDA/W5vbXPlMpfcLXxICFbdAJfxGdI+/tghHFe9S9hwPqAmbpE2Un+6+KVsjBMrOAvOl2hatpUyQrOgJKbZ21ivfKquGDnK9Wfvto7LffwXz1bBq27OtOsCVgw790XXmevdNR690ZSFJ3wK9pBK7c837j8vznUVUIbUNmglcLW3y3UNhoMQWqITfOqlXFv1tV75j4l6mLDBC+mzi3OZ0H6r0s8JH3HdIsrHAPKllM+4h+FEc/jBfKJsaDZYm8zVp1U+p1EZWWUWV8tunNawrhLSvoiVZa5KkbPIML0lDECrFAj2d3ec6YUJN/jVqviCq+ICrSyvhYdr0s0GlrT+tftaynmr4rSbswYu4TZ6uNdGj+tEJNgiLJmzEM5QxX5D+wCpSSpd4+lekpLPSagaowd8JZ1a6YddeNfxWpaHub7ahsjsEJuUuoZEQKHsLcCqxSVg0YS2eoIwfVeCbtE79ptLlv0/UWaMHWDpS/WW+sllUmqrht0qPMWd7RBAYHSzLyREKs7AAP2iLRhPWzsPKmE9IJ1hFmenB8j7RTnbAdmyox5Zpk6TilfBbK3Xqk0Ip74OtJddPOF04RIgSbx0Dhe5CY6EgTVbtS8IaYZPgT0rKAPVjhfpGLKaFwuPCZzIaPA+XTPRoNGHNnahMNKpgApRL/JbCfE37aUUq5farFPkFbiw3liJcokwl/Hat+mb/6cBXy4U4vj9CfA8J/n/O+O3FeIFbw5FC9AB6RWXnCHnpStXMdNip1CbPUq+cRk8T6hOxw64XzB7blacsbSp0Kllb+Mf6QZpGVOG/Ra2whg7QlBMTuzDZ4yykNIaZtd8uVic5INj8WghsEoxxqlCI2PDh3SxcJiB7hsAPJZG/QXhM2CFcJHQQNgjUbRNi0TxxIQBOiSVx8DK1cXYwe7yp7yYpD/fj0lcomrDm+KUsk8b68rry5SyIppLf4+mrU/5Ap0UaAPbh16acmllS1n47Xp3fLdztDWKJ8oxvtVcWzTJu+Ige+K+ZT5P0YfOHlJ87QPYbKat7r7TI35dVjwAhC5OpvhOTzgzIz5nTpjlSyEZBGFuMZonB+kJ6azGBAvWDIrqGFeA9UKq6qKOciNgmjYir0Liz9hsbBGPhB3FQS8E29hV7S3L/Ga1ixj80R/V3XR31i7z6H3nlhXTvE2ntCTy7r7R+Z7hq9BeyiK66S2+caMI8cJIy0ajiKKtMmB5M7xP+0M/Shy0o7uDN/cqU8ln77VD1k4hxitffMcqzwME9Xnk0+4wKlkcL3fc0paZjtMfDVWWiwHsIj5tFyT9lphfl3s8wStm1wtX7i0IuhgVmiyduNGHqfqGMOZv0FqtImC729MQ6RRLqz8XOom1XATAfzUarlL9QaCSkRVn7jWsHB0Jvr8MLlbcxDfHK/ezh+uDhk80yFz2vQtPRPhdD3LKrPEXXxBUSH86gA+zggeJZIOmpZFqJKthczOGcPEmjiqaSsVMXPXVCXOKN5mdC57gCjg/+twXrd6XTF9Q20WG5VCm/HeJ1lI3DfM7TQKFNL98YeW8zHazXvOQ3nI+pp1fxdy9fLMup9gmB8CVQPAvc6Nhuise+j+s55TjRLnAlRyodJ4x333GS08VEeGu0yDIx0i+K51KBe20S2ixmHsrbJhEqg3eAJ7tLeQ4xTulyqVJ+443QaLQyDd3Hg0pZ8Pko3xj7S8B0LMonHLec+43t9NxbAmVjgY9JLc6eW6L6k528+Yp/27ZKoIvNyWTpRxJfLxV/kkMkQbdSY71Dmhgfi+0+4UNCGlQNv7G41wrmry4lDmSyp+OiEnXsFeN+845Ttq4cRUG2qAV+KQ4WaJz/dORT9itV2OQhZfHHpT+J0WSTvE9wZ0aOK2qt0p3qGH3kX9lnp9zJavhtkBsPY1pSxnj894kOZejZ+6pvk2dBTEXsbucLrWPyx2Vr7/R+TmnHPEJ9VX6e4L/Ssvv2EoYJxwm1SBYNlBpN2JjsdDOfxY0q7MHL5OpMYZGUq+uTAqd0Wid0kSYTV+N3xrVTGJBYurBAtfw2Td0yX431unir8j/1vgtlj1Gl6Vidh3Gwyv+Rp+59xZfpy5QVO524384TNgg8EjF5cFI51FjC1wvrBR69lgiLBHT/RGATgEh5+V8rvCbwmHeGwL15o8BDzYsCY/m+YHLKlkxsXPk2rKRK6Xu50YS1OVsZ85mN1+rypZ+KyMT12w1O7pF8iqtczgZIJIwdLs+gL9XwW1ONg/cVxkSExHsUxKa9RbiLD49YQ18QWMuHeeVjlLd58oBX7meX6eNvfkG+/BRVmLLP52Ny5Szcp4RWwigBuT8LpVJnCSKPnunCEQLE3RmDUN5dgM4StgtEEl8VqNstbBWGClAjgTCRuuuEcug2CbNZoYt7Xjl0koTR84zw4RRgJyg6wTYBnxSim1Rp/HHeJ5iUyJgNRhZSXsW6q9U243pcaJhyP6rlt35uTIxrpjcmHrIpszVhVb9x5dT58/73Xjl2ilJ/FSDz5WhFrm9bqAh0ysXgyroqZdL0cd91SpHBQaVQMwmtFNARXYhjXPm7So8ToPnC1L259363gdwbwqmuzJIRylC31ApKSNnB2YTQA/YITYRSaZYETVdW6fcKdI4T52mvDysK8FLVU1guWF93KM8pV4tEJEk/B2bQuWr57Rw3JsbFWoCIFP4psPh9aqcPNn7z1VWucqBXRh1vOD4RKROJ4eeiGywn8C4BRZuEQvR1VT7hGA5XSviP3LWuLGlCdII8i711RJiIYo5Am0ZEDgPdB5sGstPct5/YLvmOClv4FQnyzcXLNYg2wKsCi60U6iYhNjzTlVVKVNHS6+C5yv9QmCIQWvrt4jvqiJoM8M0W1go+L/mfC7VIPdQp+rdBYC6nSdXyG2NgPdicuVh51sOjwr+EYwWf8LlFfeuUbysQkWwU/ircLWCjNUIbATpbeFFYKbQXitIJ4kAJYJIUIk7UZo7hQqXIsBg/6MqSJDyKWbv3xhS0RcCEYFEgf2kO2a+5OgxNZFAqfUWCGHu1cEGpSiR3jWBjzTLlVDnP6ycTK432iKz6enprKXu5G+OkDDpVLb/ZUL6hDD5lHrMRsEn0F3LRN1XItRw+5ix+XyiwNokEfyxQ95bAIUH9H4SjhVhkCx5BjB6XHhMjMnPjCkT4hjt5dHAPTEKExciBLjkEZ7i653LUhaKDywKE3YTmpAcjHa9BsUaJDlsWGSAHaB/hEuFkIXqd4G1shIA+6hPRneK2RdcxpiSLk50OOUIYiPAlyel9h/iR3yYkpXESQHZ9DkGinq2ufmqO+lAULBAsUMQC3VV/n8DmYLvNk8qz6BYLcWmCGJF5WWAXY3ESno8RosQGYtcVv+4KfaBjlV+YI3+syjpEyu194qFIOZ8jBfS+IeSKNlQcKFggWCCfBfhX16sCiwicL7QRLDIYpXxc4pUUHXYv5C7/psB9yKfv6AP9nPAseJ+66cP6ki+SGSIeIo7rPEE2JsqQneyVkz1G4EGWum8JgYIFggUSWmCw+G1hkg4UWMjklwoswLi0WIzIsbmcImwQxgtR+osKrE02kyjdqwLqWfB++zyw1gk8vkwR2OSM/PcJNqferoKogw2Mh5+bBV+fPgMFCwQLxLFAVzHZomUR9hNeFwjRqUtCg8T8bwH53cJdQi7icXSXQLv352JQGRvMFmGzsEzgxRa9c4S+QpTGqQB98LHRsVm8INAOG8VQIVCwQLBAGRZgUbKgWFwsNv7dcqZQCjWWUB+hRQzhieK5vQhfZ9WfJrQtwjdf9fR9huPj/YMNJclDqhMNSbBAsEA+CxymiiECUUHTfEwpl/9W+i5JQSfXCXufyHWVSaGJoCJYIFigGhbgDYEfgrRKoXF0EU2AE1PQF1QECwQL1IAFuEasEb5dZl/4V+5w4VHBNgr+FdtLCBQsECyQkgX+D5ppf0L3GmmtAAAAAElFTkSuQmCC;" parent="1" vertex="1">
          <mxGeometry x="-240" y="428.15" width="82" height="11.71" as="geometry" />
        </mxCell>
        <mxCell id="2UoVGlsXdKEKuQGdsdA1-3" value="" style="shape=image;verticalLabelPosition=bottom;labelBackgroundColor=default;verticalAlign=top;aspect=fixed;imageAspect=0;image=data:image/png,iVBORw0KGgoAAAANSUhEUgAAAQoAAAAmCAYAAAA80tUwAAABW2lDQ1BJQ0MgUHJvZmlsZQAAKJF1kL1Lw1AUxU9qJaKBKjiJQsDFIUpptepYq6hQMNQP/AAhTdtU6MfrS6wIbrq5+A/o5P+gOOmsmyII7urkIBZBS7wvVdsqXrjcH4fzLvcdwNdmMJbzA8gXHJ6YnlCXV1ZV+QEdkCCjByOGabOorsfJgu/ZXJVb8lJdD4pdkd3ya7Hr6OZZfXq83Ff2/vqbqj2Vtk2aH9RBk3EHkDRifcthgneIuzkdRXwg2KrxseBkjU89z0IiRnxF3GlmjRTxPbGWbNCtBs7nNs2vG8T1SrqwOC/2UPdCxwziUBHCKCKYwhiW/vEPe/4YimDYBscGLGTh0NsoKQw5pIlnUYCJIWjeziB1WOT8O7+6xuaA8TLgM+ra+iRw0g8ESnVtgP4TyAAXa8zgxk+qUsVvZ8KhGiscaH1z3Zc+QD4Dqtx13w9dt0oZttwB56VPyc5iK2/hwVsAAAXiZVhJZk1NACoAAAAIAAQBGgAFAAAAAQAAAD4BGwAFAAAAAQAAAEYBKAADAAAAAQACAACHaQAEAAAAAQAAAE4AAAAAAAAAkAAAAAEAAACQAAAAAQADkoYABwAABWkAAAB4oAIABAAAAAEAAAEKoAMABAAAAAEAAAAmAAAAAEFTQ0lJAAAAQUFBRkFuamFiVk5yYkJ0RkVKNjlUZHNrVGVKTDBrZWF2cTdFZ1lRK2NOSkFnOHNqVHRPMG9ZbjdPRHR4SEx0bQpmVjdiMTV6dnpOMDZpV3RGMmgrb3JSQUk4YXZRSDBBU0lTaEN2QVFWUWdLRUlJQVFpaUNKb0JJQzFGLzlnL3FqCmZ4Q3FrRmcvS0FWMVY2ZWJtZDJaK2VhYjJYalcwQjNtOGF3aUNWZXRXYnV1TnVTZW9yYWpXK2E0bTloYVdoZGEKd00yc2JNaHR4YzlRalRsTmdNNjlHcE5kZnZVWXpkT0VyM0xwaCtxYWdHMVpqS04zNUYzcjY5cnZ2YStqOC83ZAplL2J1ZStEQmc0LzBEVHh4N09TcDhNUnBRcE5uTWxtV0M3ck5uR0dzMURlNDVGYjNtRi9kTjBuelRsajhLMGxHCjNacEJIT2R5WTFQemhvMmJOcmRzNFJMSHZJcXY0V3Y1T2w3TmEzanQ1YTNidHUvWXFleTZwNDJ2NTNXOGdidDQKSTIvbFcvbDJ2b01yb1RoeHFLR2JOS2haaG1VSE1sYUNCcG5PREJySzJwUms0Z2FOWmtqSzFKTzZScGdvTjVBZwpqSXF5NGtTYlRObFd6a3djS2pxR0hTdG5helJBWjFnYlZOYUtwOHZWdmI4bjZGZFBIZW1QK05YU1JUVkxORHJvClVjUUdHZkg2NVljTzlENGNMcGRoa2d3TmxVWHFqRlVjNW51OUliOTZ2RlN2WExYc2V2U3h4OGNGQVE2emRUUEYKNVJNaWdLKy94UE5JamhHQlZ5MmRMUGdPRmYzS3lzcGgxK0NSbzBPM2RRSEd4NFFVenpIcThDYStoVGZINU9WSQp3dEp5R1dxeUVvS0pMaytXUlF2RVpycG0wTm5hU002aEF2c2tTZEVKSVJheE90RkNpYlZacFYxWUVrclNzc1ZuCk1xVmt2ZE9qUURLT2s4L0V4YzBNWVdubi8yZEY0OTNPSm5JczJSc3Q2R1pXSURXMWNxSmt6bENZcGJCOGxpb0oKM1JhOEdIa2hFTTNXQlZaRlN4T2JhRXhNWjIxeGNJYjlKK1pHK0lhNTQzd2pieG4xcTRNQzRLb2FDTHBHeDBMagpRbGYxczFRUWt4dzBTTW9SdWw4VTF0YlhVVzZoTFBOTmZQUG9pR1VTelJKTVI2S1ZDUE1ScjFCalR3b21CM1N0Ck9CakV6cy9IaXNhNEZwT2I3aUE0VWVaOFB1RzlxNzJ0cjd1Y2F6bmxTdXZGR1dlNlFPQmJ6T2VmdjFDbjhHMGkKNUtRaDBnNkl3WnVmOUJhbnl0emZNOWlsaUEyOHZ0amJwNDRPOFozbExuWW1Zd1Y5ajVhZFZieEtaSUFhakNqRApTc1RXVTJsR2JOdWEvc2VvejRpNFU5TXh1Zm4yNFB4YnlNSlV6QXZWMEFpdDRJWk82SVlETUFURGNCSlVtSVpaCmVCcWVoWXZ3TXJ3QmI4SmI4RGE4QysvREIzQUZQb0tQNFV2NENyNkJiK0U3V0lMdllSbFc0VWU0Q3RmZ092d08KTitFV3FrRU5TRUc3VVE4NmlIeklqNEpvREkyajAwaEhOanFMWnRFNWRBRTloeTZpbDlBbDlBcDZEMzJJUGtXTAphQW45akg1QnY2RnIwaFhwRStrejZYUHBDMmxSK2xwYWtuNlNmcFd1U3pla1A2US9wVnZTWDdnSzEyQVpOK01XCjNJNDc4Rjdjancvak1OWndHbWR4SGhjd3grZnhNL2dGL0NLK2hPZndBbjROdjQ1WDhGVjhvOXdFQ1ZVZTd3ejgKWitHYmZ3UDlKSjQ5AMXbmosAAAAJcEhZcwAAFiUAABYlAUlSJPAAAAhRaVRYdFhNTDpjb20uYWRvYmUueG1wAAAAAAA8eDp4bXBtZXRhIHhtbG5zOng9ImFkb2JlOm5zOm1ldGEvIiB4OnhtcHRrPSJYTVAgQ29yZSA2LjAuMCI+CiAgIDxyZGY6UkRGIHhtbG5zOnJkZj0iaHR0cDovL3d3dy53My5vcmcvMTk5OS8wMi8yMi1yZGYtc3ludGF4LW5zIyI+CiAgICAgIDxyZGY6RGVzY3JpcHRpb24gcmRmOmFib3V0PSIiCiAgICAgICAgICAgIHhtbG5zOnRpZmY9Imh0dHA6Ly9ucy5hZG9iZS5jb20vdGlmZi8xLjAvIgogICAgICAgICAgICB4bWxuczpleGlmPSJodHRwOi8vbnMuYWRvYmUuY29tL2V4aWYvMS4wLyI+CiAgICAgICAgIDx0aWZmOllSZXNvbHV0aW9uPjE0NDwvdGlmZjpZUmVzb2x1dGlvbj4KICAgICAgICAgPHRpZmY6WFJlc29sdXRpb24+MTQ0PC90aWZmOlhSZXNvbHV0aW9uPgogICAgICAgICA8dGlmZjpSZXNvbHV0aW9uVW5pdD4yPC90aWZmOlJlc29sdXRpb25Vbml0PgogICAgICAgICA8ZXhpZjpQaXhlbFlEaW1lbnNpb24+Mzg8L2V4aWY6UGl4ZWxZRGltZW5zaW9uPgogICAgICAgICA8ZXhpZjpVc2VyQ29tbWVudD5BQUFGQW5qYWJWTnJiQnRGRUo2OVRkc2tUZUpMMGtlYXZxN0VnWVErY05KQWc4c2pUdE8wb1luN09EdHhITHRtJiN4QTtmVjdiMTV6dnpOMDZpV3RGMmgrb3JSQUk4YXZRSDBBU0lTaEN2QVFWUWdLRUlJQVFpaUNKb0JJQzFGLzlnL3FqJiN4QTtmeENxa0ZnL0tBVjFWNmVibWQyWitlYWIyWGpXMEIzbThhd2lDVmV0V2J1dU51U2VvcmFqVythNG05aGFXaGRhJiN4QTt3TTJzYk1odHhjOVFqVGxOZ002OUdwTmRmdlVZemRPRXIzTHBoK3FhZ0cxWmpLTjM1RjNyNjlydnZhK2o4LzdkJiN4QTtlL2J1ZStEQmc0LzBEVHh4N09TcDhNUnBRcE5uTWxtV0M3ck5uR0dzMURlNDVGYjNtRi9kTjBuelRsajhLMGxHJiN4QTszWnBCSE9keVkxUHpobzJiTnJkczRSTEh2SXF2NFd2NU9sN05hM2p0NWEzYnR1L1lxZXk2cDQydjUzVzhnYnQ0JiN4QTtJMi9sVy9sMnZvTXJvVGh4cUtHYk5LaFpobVVITWxhQ0Jwbk9EQnJLMnBSazRnYU5aa2pLMUpPNlJwZ29ONUFnJiN4QTtqSXF5NGtTYlRObFd6a3djS2pxR0hTdG5helJBWjFnYlZOYUtwOHZWdmI4bjZGZFBIZW1QK05YU1JUVkxORHJvJiN4QTtVY1FHR2ZINjVZY085RDRjTHBkaGtnd05sVVhxakZVYzVudTlJYjk2dkZTdlhMWHNldlN4eDhjRkFRNnpkVFBGJiN4QTs1Uk1pZ0srL3hQTklqaEdCVnkyZExQZ09GZjNLeXNwaDErQ1JvME8zZFFIR3g0UVV6ekhxOENhK2hUZkg1T1ZJJiN4QTt3dEp5R1dxeUVvS0pMaytXUlF2RVpycG0wTm5hU002aEF2c2tTZEVKSVJheE90RkNpYlZacFYxWUVrclNzc1ZuJiN4QTtNcVZrdmRPalFES09rOC9FeGMwTVlXbm4vMmRGNDkzT0puSXMyUnN0NkdaV0lEVzFjcUpremxDWXBiQjhsaW9KJiN4QTszUmE4R0hraEVNM1dCVlpGU3hPYmFFeE1aMjF4Y0liOUorWkcrSWE1NDN3amJ4bjFxNE1DNEtvYUNMcEd4MExqJiN4QTtRbGYxczFRUWt4dzBTTW9SdWw4VTF0YlhVVzZoTFBOTmZQUG9pR1VTelJKTVI2S1ZDUE1ScjFCalR3b21CM1N0JiN4QTtPQmpFenMvSGlzYTRGcE9iN2lBNFVlWjhQdUc5cTcydHI3dWNhem5sU3V2RkdXZTZRT0Jiek9lZnYxQ244RzBpJiN4QTs1S1FoMGc2SXdadWY5QmFueXR6Zk05aWxpQTI4dnRqYnA0NE84WjNsTG5ZbVl3VjlqNWFkVmJ4S1pJQWFqQ2pEJiN4QTtTc1RXVTJsR2JOdWEvc2VvejRpNFU5TXh1Zm4yNFB4YnlNSlV6QXZWMEFpdDRJWk82SVlETUFURGNCSlVtSVpaJiN4QTtlQnFlaFl2d01yd0JiOEpiOERhOEMrL0RCM0FGUG9LUDRVdjRDcjZCYitFN1dJTHZZUmxXNFVlNEN0ZmdPdndPJiN4QTtOK0VXcWtFTlNFRzdVUTg2aUh6SWo0Sm9ESTJqMDBoSE5qcUxadEU1ZEFFOWh5NmlsOUFsOUFwNkQzMklQa1dMJiN4QTthQW45akg1QnY2RnIwaFhwRStrejZYUHBDMmxSK2xwYWtuNlNmcFd1U3pla1A2US9wVnZTWDdnSzEyQVpOK01XJiN4QTszSTQ3OEY3Y2p3L2pNTlp3R21keEhoY3d4K2Z4TS9nRi9DSytoT2Z3QW40TnY0NVg4RlY4bzl3RUNWVWU3d3o4JiN4QTtaK0diZndQOUpKNDk8L2V4aWY6VXNlckNvbW1lbnQ+CiAgICAgICAgIDxleGlmOlBpeGVsWERpbWVuc2lvbj4yNjY8L2V4aWY6UGl4ZWxYRGltZW5zaW9uPgogICAgICA8L3JkZjpEZXNjcmlwdGlvbj4KICAgPC9yZGY6UkRGPgo8L3g6eG1wbWV0YT4Kpp92+QAADJtJREFUeAHtmgvUVUUVx3mICoggCYWAIkQpGvFSlBIIhNI0jTBCVBaGVqvM8FmupHyQmEn6iSxLaimCUEE81mppLyGQkJWVomKGCIIgBAYCimhW/x/OhvGs+zjn3nPuvfDNXuv/zZyZvffM7D2PPfPdBg0CBQsECwQLFLFA4yL1obr2LNBcXWokvFt7XQs9KmCBeum3TjLIROHXwgShnxAoewv0UBNvC1uFo7NvLrSQkgXqpd/OlfGYrHuEWcJK4X/CLUKgbC2wQOqxNbg9g6YWS+cmYZ2wSnhWeEp4WnheeEl4RYDnYSFQPAtk7Td60VIgaqkJ6qZevCUwUccKpwob3fdrSgNlZ4HeUm2bBOlOIe2o4mbpfFB4RDA/W5vbXPlMpfcLXxICFbdAJfxGdI+/tghHFe9S9hwPqAmbpE2Un+6+KVsjBMrOAvOl2hatpUyQrOgJKbZ21ivfKquGDnK9Wfvto7LffwXz1bBq27OtOsCVgw790XXmevdNR690ZSFJ3wK9pBK7c837j8vznUVUIbUNmglcLW3y3UNhoMQWqITfOqlXFv1tV75j4l6mLDBC+mzi3OZ0H6r0s8JH3HdIsrHAPKllM+4h+FEc/jBfKJsaDZYm8zVp1U+p1EZWWUWV8tunNawrhLSvoiVZa5KkbPIML0lDECrFAj2d3ec6YUJN/jVqviCq+ICrSyvhYdr0s0GlrT+tftaynmr4rSbswYu4TZ6uNdGj+tEJNgiLJmzEM5QxX5D+wCpSSpd4+lekpLPSagaowd8JZ1a6YddeNfxWpaHub7ahsjsEJuUuoZEQKHsLcCqxSVg0YS2eoIwfVeCbtE79ptLlv0/UWaMHWDpS/WW+sllUmqrht0qPMWd7RBAYHSzLyREKs7AAP2iLRhPWzsPKmE9IJ1hFmenB8j7RTnbAdmyox5Zpk6TilfBbK3Xqk0Ip74OtJddPOF04RIgSbx0Dhe5CY6EgTVbtS8IaYZPgT0rKAPVjhfpGLKaFwuPCZzIaPA+XTPRoNGHNnahMNKpgApRL/JbCfE37aUUq5farFPkFbiw3liJcokwl/Hat+mb/6cBXy4U4vj9CfA8J/n/O+O3FeIFbw5FC9AB6RWXnCHnpStXMdNip1CbPUq+cRk8T6hOxw64XzB7blacsbSp0Kllb+Mf6QZpGVOG/Ra2whg7QlBMTuzDZ4yykNIaZtd8uVic5INj8WghsEoxxqlCI2PDh3SxcJiB7hsAPJZG/QXhM2CFcJHQQNgjUbRNi0TxxIQBOiSVx8DK1cXYwe7yp7yYpD/fj0lcomrDm+KUsk8b68rry5SyIppLf4+mrU/5Ap0UaAPbh16acmllS1n47Xp3fLdztDWKJ8oxvtVcWzTJu+Ige+K+ZT5P0YfOHlJ87QPYbKat7r7TI35dVjwAhC5OpvhOTzgzIz5nTpjlSyEZBGFuMZonB+kJ6azGBAvWDIrqGFeA9UKq6qKOciNgmjYir0Liz9hsbBGPhB3FQS8E29hV7S3L/Ga1ixj80R/V3XR31i7z6H3nlhXTvE2ntCTy7r7R+Z7hq9BeyiK66S2+caMI8cJIy0ajiKKtMmB5M7xP+0M/Shy0o7uDN/cqU8ln77VD1k4hxitffMcqzwME9Xnk0+4wKlkcL3fc0paZjtMfDVWWiwHsIj5tFyT9lphfl3s8wStm1wtX7i0IuhgVmiyduNGHqfqGMOZv0FqtImC729MQ6RRLqz8XOom1XATAfzUarlL9QaCSkRVn7jWsHB0Jvr8MLlbcxDfHK/ezh+uDhk80yFz2vQtPRPhdD3LKrPEXXxBUSH86gA+zggeJZIOmpZFqJKthczOGcPEmjiqaSsVMXPXVCXOKN5mdC57gCjg/+twXrd6XTF9Q20WG5VCm/HeJ1lI3DfM7TQKFNL98YeW8zHazXvOQ3nI+pp1fxdy9fLMup9gmB8CVQPAvc6Nhuise+j+s55TjRLnAlRyodJ4x333GS08VEeGu0yDIx0i+K51KBe20S2ixmHsrbJhEqg3eAJ7tLeQ4xTulyqVJ+443QaLQyDd3Hg0pZ8Pko3xj7S8B0LMonHLec+43t9NxbAmVjgY9JLc6eW6L6k528+Yp/27ZKoIvNyWTpRxJfLxV/kkMkQbdSY71Dmhgfi+0+4UNCGlQNv7G41wrmry4lDmSyp+OiEnXsFeN+845Ttq4cRUG2qAV+KQ4WaJz/dORT9itV2OQhZfHHpT+J0WSTvE9wZ0aOK2qt0p3qGH3kX9lnp9zJavhtkBsPY1pSxnj894kOZejZ+6pvk2dBTEXsbucLrWPyx2Vr7/R+TmnHPEJ9VX6e4L/Ssvv2EoYJxwm1SBYNlBpN2JjsdDOfxY0q7MHL5OpMYZGUq+uTAqd0Wid0kSYTV+N3xrVTGJBYurBAtfw2Td0yX431unir8j/1vgtlj1Gl6Vidh3Gwyv+Rp+59xZfpy5QVO524384TNgg8EjF5cFI51FjC1wvrBR69lgiLBHT/RGATgEh5+V8rvCbwmHeGwL15o8BDzYsCY/m+YHLKlkxsXPk2rKRK6Xu50YS1OVsZ85mN1+rypZ+KyMT12w1O7pF8iqtczgZIJIwdLs+gL9XwW1ONg/cVxkSExHsUxKa9RbiLD49YQ18QWMuHeeVjlLd58oBX7meX6eNvfkG+/BRVmLLP52Ny5Szcp4RWwigBuT8LpVJnCSKPnunCEQLE3RmDUN5dgM4StgtEEl8VqNstbBWGClAjgTCRuuuEcug2CbNZoYt7Xjl0koTR84zw4RRgJyg6wTYBnxSim1Rp/HHeJ5iUyJgNRhZSXsW6q9U243pcaJhyP6rlt35uTIxrpjcmHrIpszVhVb9x5dT58/73Xjl2ilJ/FSDz5WhFrm9bqAh0ysXgyroqZdL0cd91SpHBQaVQMwmtFNARXYhjXPm7So8ToPnC1L259363gdwbwqmuzJIRylC31ApKSNnB2YTQA/YITYRSaZYETVdW6fcKdI4T52mvDysK8FLVU1guWF93KM8pV4tEJEk/B2bQuWr57Rw3JsbFWoCIFP4psPh9aqcPNn7z1VWucqBXRh1vOD4RKROJ4eeiGywn8C4BRZuEQvR1VT7hGA5XSviP3LWuLGlCdII8i711RJiIYo5Am0ZEDgPdB5sGstPct5/YLvmOClv4FQnyzcXLNYg2wKsCi60U6iYhNjzTlVVKVNHS6+C5yv9QmCIQWvrt4jvqiJoM8M0W1go+L/mfC7VIPdQp+rdBYC6nSdXyG2NgPdicuVh51sOjwr+EYwWf8LlFfeuUbysQkWwU/ircLWCjNUIbATpbeFFYKbQXitIJ4kAJYJIUIk7UZo7hQqXIsBg/6MqSJDyKWbv3xhS0RcCEYFEgf2kO2a+5OgxNZFAqfUWCGHu1cEGpSiR3jWBjzTLlVDnP6ycTK432iKz6enprKXu5G+OkDDpVLb/ZUL6hDD5lHrMRsEn0F3LRN1XItRw+5ix+XyiwNokEfyxQ95bAIUH9H4SjhVhkCx5BjB6XHhMjMnPjCkT4hjt5dHAPTEKExciBLjkEZ7i653LUhaKDywKE3YTmpAcjHa9BsUaJDlsWGSAHaB/hEuFkIXqd4G1shIA+6hPRneK2RdcxpiSLk50OOUIYiPAlyel9h/iR3yYkpXESQHZ9DkGinq2ufmqO+lAULBAsUMQC3VV/n8DmYLvNk8qz6BYLcWmCGJF5WWAXY3ESno8RosQGYtcVv+4KfaBjlV+YI3+syjpEyu194qFIOZ8jBfS+IeSKNlQcKFggWCCfBfhX16sCiwicL7QRLDIYpXxc4pUUHXYv5C7/psB9yKfv6AP9nPAseJ+66cP6ki+SGSIeIo7rPEE2JsqQneyVkz1G4EGWum8JgYIFggUSWmCw+G1hkg4UWMjklwoswLi0WIzIsbmcImwQxgtR+osKrE02kyjdqwLqWfB++zyw1gk8vkwR2OSM/PcJNqferoKogw2Mh5+bBV+fPgMFCwQLxLFAVzHZomUR9hNeFwjRqUtCg8T8bwH53cJdQi7icXSXQLv352JQGRvMFmGzsEzgxRa9c4S+QpTGqQB98LHRsVm8INAOG8VQIVCwQLBAGRZgUbKgWFwsNv7dcqZQCjWWUB+hRQzhieK5vQhfZ9WfJrQtwjdf9fR9huPj/YMNJclDqhMNSbBAsEA+CxymiiECUUHTfEwpl/9W+i5JQSfXCXufyHWVSaGJoCJYIFigGhbgDYEfgrRKoXF0EU2AE1PQF1QECwQL1IAFuEasEb5dZl/4V+5w4VHBNgr+FdtLCBQsECyQkgX+D5ppf0L3GmmtAAAAAElFTkSuQmCC;" parent="1" vertex="1">
          <mxGeometry x="-121.75" y="426" width="82" height="11.71" as="geometry" />
        </mxCell>
        <mxCell id="2UoVGlsXdKEKuQGdsdA1-4" value="" style="shape=image;verticalLabelPosition=bottom;labelBackgroundColor=default;verticalAlign=top;aspect=fixed;imageAspect=0;image=data:image/png,iVBORw0KGgoAAAANSUhEUgAAAQoAAAAmCAYAAAA80tUwAAABW2lDQ1BJQ0MgUHJvZmlsZQAAKJF1kL1Lw1AUxU9qJaKBKjiJQsDFIUpptepYq6hQMNQP/AAhTdtU6MfrS6wIbrq5+A/o5P+gOOmsmyII7urkIBZBS7wvVdsqXrjcH4fzLvcdwNdmMJbzA8gXHJ6YnlCXV1ZV+QEdkCCjByOGabOorsfJgu/ZXJVb8lJdD4pdkd3ya7Hr6OZZfXq83Ff2/vqbqj2Vtk2aH9RBk3EHkDRifcthgneIuzkdRXwg2KrxseBkjU89z0IiRnxF3GlmjRTxPbGWbNCtBs7nNs2vG8T1SrqwOC/2UPdCxwziUBHCKCKYwhiW/vEPe/4YimDYBscGLGTh0NsoKQw5pIlnUYCJIWjeziB1WOT8O7+6xuaA8TLgM+ra+iRw0g8ESnVtgP4TyAAXa8zgxk+qUsVvZ8KhGiscaH1z3Zc+QD4Dqtx13w9dt0oZttwB56VPyc5iK2/hwVsAAAXiZVhJZk1NACoAAAAIAAQBGgAFAAAAAQAAAD4BGwAFAAAAAQAAAEYBKAADAAAAAQACAACHaQAEAAAAAQAAAE4AAAAAAAAAkAAAAAEAAACQAAAAAQADkoYABwAABWkAAAB4oAIABAAAAAEAAAEKoAMABAAAAAEAAAAmAAAAAEFTQ0lJAAAAQUFBRkFuamFiVk5yYkJ0RkVKNjlUZHNrVGVKTDBrZWF2cTdFZ1lRK2NOSkFnOHNqVHRPMG9ZbjdPRHR4SEx0bQpmVjdiMTV6dnpOMDZpV3RGMmgrb3JSQUk4YXZRSDBBU0lTaEN2QVFWUWdLRUlJQVFpaUNKb0JJQzFGLzlnL3FqCmZ4Q3FrRmcvS0FWMVY2ZWJtZDJaK2VhYjJYalcwQjNtOGF3aUNWZXRXYnV1TnVTZW9yYWpXK2E0bTloYVdoZGEKd00yc2JNaHR4YzlRalRsTmdNNjlHcE5kZnZVWXpkT0VyM0xwaCtxYWdHMVpqS04zNUYzcjY5cnZ2YStqOC83ZAplL2J1ZStEQmc0LzBEVHh4N09TcDhNUnBRcE5uTWxtV0M3ck5uR0dzMURlNDVGYjNtRi9kTjBuelRsajhLMGxHCjNacEJIT2R5WTFQemhvMmJOcmRzNFJMSHZJcXY0V3Y1T2w3TmEzanQ1YTNidHUvWXFleTZwNDJ2NTNXOGdidDQKSTIvbFcvbDJ2b01yb1RoeHFLR2JOS2haaG1VSE1sYUNCcG5PREJySzJwUms0Z2FOWmtqSzFKTzZScGdvTjVBZwpqSXF5NGtTYlRObFd6a3djS2pxR0hTdG5helJBWjFnYlZOYUtwOHZWdmI4bjZGZFBIZW1QK05YU1JUVkxORHJvClVjUUdHZkg2NVljTzlENGNMcGRoa2d3TmxVWHFqRlVjNW51OUliOTZ2RlN2WExYc2V2U3h4OGNGQVE2emRUUEYKNVJNaWdLKy94UE5JamhHQlZ5MmRMUGdPRmYzS3lzcGgxK0NSbzBPM2RRSEd4NFFVenpIcThDYStoVGZINU9WSQp3dEp5R1dxeUVvS0pMaytXUlF2RVpycG0wTm5hU002aEF2c2tTZEVKSVJheE90RkNpYlZacFYxWUVrclNzc1ZuCk1xVmt2ZE9qUURLT2s4L0V4YzBNWVdubi8yZEY0OTNPSm5JczJSc3Q2R1pXSURXMWNxSmt6bENZcGJCOGxpb0oKM1JhOEdIa2hFTTNXQlZaRlN4T2JhRXhNWjIxeGNJYjlKK1pHK0lhNTQzd2pieG4xcTRNQzRLb2FDTHBHeDBMagpRbGYxczFRUWt4dzBTTW9SdWw4VTF0YlhVVzZoTFBOTmZQUG9pR1VTelJKTVI2S1ZDUE1ScjFCalR3b21CM1N0Ck9CakV6cy9IaXNhNEZwT2I3aUE0VWVaOFB1RzlxNzJ0cjd1Y2F6bmxTdXZGR1dlNlFPQmJ6T2VmdjFDbjhHMGkKNUtRaDBnNkl3WnVmOUJhbnl0emZNOWlsaUEyOHZ0amJwNDRPOFozbExuWW1Zd1Y5ajVhZFZieEtaSUFhakNqRApTc1RXVTJsR2JOdWEvc2VvejRpNFU5TXh1Zm4yNFB4YnlNSlV6QXZWMEFpdDRJWk82SVlETUFURGNCSlVtSVpaCmVCcWVoWXZ3TXJ3QmI4SmI4RGE4QysvREIzQUZQb0tQNFV2NENyNkJiK0U3V0lMdllSbFc0VWU0Q3RmZ092d08KTitFV3FrRU5TRUc3VVE4NmlIeklqNEpvREkyajAwaEhOanFMWnRFNWRBRTloeTZpbDlBbDlBcDZEMzJJUGtXTAphQW45akg1QnY2RnIwaFhwRStrejZYUHBDMmxSK2xwYWtuNlNmcFd1U3pla1A2US9wVnZTWDdnSzEyQVpOK01XCjNJNDc4Rjdjancvak1OWndHbWR4SGhjd3grZnhNL2dGL0NLK2hPZndBbjROdjQ1WDhGVjhvOXdFQ1ZVZTd3ejgKWitHYmZ3UDlKSjQ5AMXbmosAAAAJcEhZcwAAFiUAABYlAUlSJPAAAAhRaVRYdFhNTDpjb20uYWRvYmUueG1wAAAAAAA8eDp4bXBtZXRhIHhtbG5zOng9ImFkb2JlOm5zOm1ldGEvIiB4OnhtcHRrPSJYTVAgQ29yZSA2LjAuMCI+CiAgIDxyZGY6UkRGIHhtbG5zOnJkZj0iaHR0cDovL3d3dy53My5vcmcvMTk5OS8wMi8yMi1yZGYtc3ludGF4LW5zIyI+CiAgICAgIDxyZGY6RGVzY3JpcHRpb24gcmRmOmFib3V0PSIiCiAgICAgICAgICAgIHhtbG5zOnRpZmY9Imh0dHA6Ly9ucy5hZG9iZS5jb20vdGlmZi8xLjAvIgogICAgICAgICAgICB4bWxuczpleGlmPSJodHRwOi8vbnMuYWRvYmUuY29tL2V4aWYvMS4wLyI+CiAgICAgICAgIDx0aWZmOllSZXNvbHV0aW9uPjE0NDwvdGlmZjpZUmVzb2x1dGlvbj4KICAgICAgICAgPHRpZmY6WFJlc29sdXRpb24+MTQ0PC90aWZmOlhSZXNvbHV0aW9uPgogICAgICAgICA8dGlmZjpSZXNvbHV0aW9uVW5pdD4yPC90aWZmOlJlc29sdXRpb25Vbml0PgogICAgICAgICA8ZXhpZjpQaXhlbFlEaW1lbnNpb24+Mzg8L2V4aWY6UGl4ZWxZRGltZW5zaW9uPgogICAgICAgICA8ZXhpZjpVc2VyQ29tbWVudD5BQUFGQW5qYWJWTnJiQnRGRUo2OVRkc2tUZUpMMGtlYXZxN0VnWVErY05KQWc4c2pUdE8wb1luN09EdHhITHRtJiN4QTtmVjdiMTV6dnpOMDZpV3RGMmgrb3JSQUk4YXZRSDBBU0lTaEN2QVFWUWdLRUlJQVFpaUNKb0JJQzFGLzlnL3FqJiN4QTtmeENxa0ZnL0tBVjFWNmVibWQyWitlYWIyWGpXMEIzbThhd2lDVmV0V2J1dU51U2VvcmFqVythNG05aGFXaGRhJiN4QTt3TTJzYk1odHhjOVFqVGxOZ002OUdwTmRmdlVZemRPRXIzTHBoK3FhZ0cxWmpLTjM1RjNyNjlydnZhK2o4LzdkJiN4QTtlL2J1ZStEQmc0LzBEVHh4N09TcDhNUnBRcE5uTWxtV0M3ck5uR0dzMURlNDVGYjNtRi9kTjBuelRsajhLMGxHJiN4QTszWnBCSE9keVkxUHpobzJiTnJkczRSTEh2SXF2NFd2NU9sN05hM2p0NWEzYnR1L1lxZXk2cDQydjUzVzhnYnQ0JiN4QTtJMi9sVy9sMnZvTXJvVGh4cUtHYk5LaFpobVVITWxhQ0Jwbk9EQnJLMnBSazRnYU5aa2pLMUpPNlJwZ29ONUFnJiN4QTtqSXF5NGtTYlRObFd6a3djS2pxR0hTdG5helJBWjFnYlZOYUtwOHZWdmI4bjZGZFBIZW1QK05YU1JUVkxORHJvJiN4QTtVY1FHR2ZINjVZY085RDRjTHBkaGtnd05sVVhxakZVYzVudTlJYjk2dkZTdlhMWHNldlN4eDhjRkFRNnpkVFBGJiN4QTs1Uk1pZ0srL3hQTklqaEdCVnkyZExQZ09GZjNLeXNwaDErQ1JvME8zZFFIR3g0UVV6ekhxOENhK2hUZkg1T1ZJJiN4QTt3dEp5R1dxeUVvS0pMaytXUlF2RVpycG0wTm5hU002aEF2c2tTZEVKSVJheE90RkNpYlZacFYxWUVrclNzc1ZuJiN4QTtNcVZrdmRPalFES09rOC9FeGMwTVlXbm4vMmRGNDkzT0puSXMyUnN0NkdaV0lEVzFjcUpremxDWXBiQjhsaW9KJiN4QTszUmE4R0hraEVNM1dCVlpGU3hPYmFFeE1aMjF4Y0liOUorWkcrSWE1NDN3amJ4bjFxNE1DNEtvYUNMcEd4MExqJiN4QTtRbGYxczFRUWt4dzBTTW9SdWw4VTF0YlhVVzZoTFBOTmZQUG9pR1VTelJKTVI2S1ZDUE1ScjFCalR3b21CM1N0JiN4QTtPQmpFenMvSGlzYTRGcE9iN2lBNFVlWjhQdUc5cTcydHI3dWNhem5sU3V2RkdXZTZRT0Jiek9lZnYxQ244RzBpJiN4QTs1S1FoMGc2SXdadWY5QmFueXR6Zk05aWxpQTI4dnRqYnA0NE84WjNsTG5ZbVl3VjlqNWFkVmJ4S1pJQWFqQ2pEJiN4QTtTc1RXVTJsR2JOdWEvc2VvejRpNFU5TXh1Zm4yNFB4YnlNSlV6QXZWMEFpdDRJWk82SVlETUFURGNCSlVtSVpaJiN4QTtlQnFlaFl2d01yd0JiOEpiOERhOEMrL0RCM0FGUG9LUDRVdjRDcjZCYitFN1dJTHZZUmxXNFVlNEN0ZmdPdndPJiN4QTtOK0VXcWtFTlNFRzdVUTg2aUh6SWo0Sm9ESTJqMDBoSE5qcUxadEU1ZEFFOWh5NmlsOUFsOUFwNkQzMklQa1dMJiN4QTthQW45akg1QnY2RnIwaFhwRStrejZYUHBDMmxSK2xwYWtuNlNmcFd1U3pla1A2US9wVnZTWDdnSzEyQVpOK01XJiN4QTszSTQ3OEY3Y2p3L2pNTlp3R21keEhoY3d4K2Z4TS9nRi9DSytoT2Z3QW40TnY0NVg4RlY4bzl3RUNWVWU3d3o4JiN4QTtaK0diZndQOUpKNDk8L2V4aWY6VXNlckNvbW1lbnQ+CiAgICAgICAgIDxleGlmOlBpeGVsWERpbWVuc2lvbj4yNjY8L2V4aWY6UGl4ZWxYRGltZW5zaW9uPgogICAgICA8L3JkZjpEZXNjcmlwdGlvbj4KICAgPC9yZGY6UkRGPgo8L3g6eG1wbWV0YT4Kpp92+QAADJtJREFUeAHtmgvUVUUVx3mICoggCYWAIkQpGvFSlBIIhNI0jTBCVBaGVqvM8FmupHyQmEn6iSxLaimCUEE81mppLyGQkJWVomKGCIIgBAYCimhW/x/OhvGs+zjn3nPuvfDNXuv/zZyZvffM7D2PPfPdBg0CBQsECwQLFLFA4yL1obr2LNBcXWokvFt7XQs9KmCBeum3TjLIROHXwgShnxAoewv0UBNvC1uFo7NvLrSQkgXqpd/OlfGYrHuEWcJK4X/CLUKgbC2wQOqxNbg9g6YWS+cmYZ2wSnhWeEp4WnheeEl4RYDnYSFQPAtk7Td60VIgaqkJ6qZevCUwUccKpwob3fdrSgNlZ4HeUm2bBOlOIe2o4mbpfFB4RDA/W5vbXPlMpfcLXxICFbdAJfxGdI+/tghHFe9S9hwPqAmbpE2Un+6+KVsjBMrOAvOl2hatpUyQrOgJKbZ21ivfKquGDnK9Wfvto7LffwXz1bBq27OtOsCVgw790XXmevdNR690ZSFJ3wK9pBK7c837j8vznUVUIbUNmglcLW3y3UNhoMQWqITfOqlXFv1tV75j4l6mLDBC+mzi3OZ0H6r0s8JH3HdIsrHAPKllM+4h+FEc/jBfKJsaDZYm8zVp1U+p1EZWWUWV8tunNawrhLSvoiVZa5KkbPIML0lDECrFAj2d3ec6YUJN/jVqviCq+ICrSyvhYdr0s0GlrT+tftaynmr4rSbswYu4TZ6uNdGj+tEJNgiLJmzEM5QxX5D+wCpSSpd4+lekpLPSagaowd8JZ1a6YddeNfxWpaHub7ahsjsEJuUuoZEQKHsLcCqxSVg0YS2eoIwfVeCbtE79ptLlv0/UWaMHWDpS/WW+sllUmqrht0qPMWd7RBAYHSzLyREKs7AAP2iLRhPWzsPKmE9IJ1hFmenB8j7RTnbAdmyox5Zpk6TilfBbK3Xqk0Ip74OtJddPOF04RIgSbx0Dhe5CY6EgTVbtS8IaYZPgT0rKAPVjhfpGLKaFwuPCZzIaPA+XTPRoNGHNnahMNKpgApRL/JbCfE37aUUq5farFPkFbiw3liJcokwl/Hat+mb/6cBXy4U4vj9CfA8J/n/O+O3FeIFbw5FC9AB6RWXnCHnpStXMdNip1CbPUq+cRk8T6hOxw64XzB7blacsbSp0Kllb+Mf6QZpGVOG/Ra2whg7QlBMTuzDZ4yykNIaZtd8uVic5INj8WghsEoxxqlCI2PDh3SxcJiB7hsAPJZG/QXhM2CFcJHQQNgjUbRNi0TxxIQBOiSVx8DK1cXYwe7yp7yYpD/fj0lcomrDm+KUsk8b68rry5SyIppLf4+mrU/5Ap0UaAPbh16acmllS1n47Xp3fLdztDWKJ8oxvtVcWzTJu+Ige+K+ZT5P0YfOHlJ87QPYbKat7r7TI35dVjwAhC5OpvhOTzgzIz5nTpjlSyEZBGFuMZonB+kJ6azGBAvWDIrqGFeA9UKq6qKOciNgmjYir0Liz9hsbBGPhB3FQS8E29hV7S3L/Ga1ixj80R/V3XR31i7z6H3nlhXTvE2ntCTy7r7R+Z7hq9BeyiK66S2+caMI8cJIy0ajiKKtMmB5M7xP+0M/Shy0o7uDN/cqU8ln77VD1k4hxitffMcqzwME9Xnk0+4wKlkcL3fc0paZjtMfDVWWiwHsIj5tFyT9lphfl3s8wStm1wtX7i0IuhgVmiyduNGHqfqGMOZv0FqtImC729MQ6RRLqz8XOom1XATAfzUarlL9QaCSkRVn7jWsHB0Jvr8MLlbcxDfHK/ezh+uDhk80yFz2vQtPRPhdD3LKrPEXXxBUSH86gA+zggeJZIOmpZFqJKthczOGcPEmjiqaSsVMXPXVCXOKN5mdC57gCjg/+twXrd6XTF9Q20WG5VCm/HeJ1lI3DfM7TQKFNL98YeW8zHazXvOQ3nI+pp1fxdy9fLMup9gmB8CVQPAvc6Nhuise+j+s55TjRLnAlRyodJ4x333GS08VEeGu0yDIx0i+K51KBe20S2ixmHsrbJhEqg3eAJ7tLeQ4xTulyqVJ+443QaLQyDd3Hg0pZ8Pko3xj7S8B0LMonHLec+43t9NxbAmVjgY9JLc6eW6L6k528+Yp/27ZKoIvNyWTpRxJfLxV/kkMkQbdSY71Dmhgfi+0+4UNCGlQNv7G41wrmry4lDmSyp+OiEnXsFeN+845Ttq4cRUG2qAV+KQ4WaJz/dORT9itV2OQhZfHHpT+J0WSTvE9wZ0aOK2qt0p3qGH3kX9lnp9zJavhtkBsPY1pSxnj894kOZejZ+6pvk2dBTEXsbucLrWPyx2Vr7/R+TmnHPEJ9VX6e4L/Ssvv2EoYJxwm1SBYNlBpN2JjsdDOfxY0q7MHL5OpMYZGUq+uTAqd0Wid0kSYTV+N3xrVTGJBYurBAtfw2Td0yX431unir8j/1vgtlj1Gl6Vidh3Gwyv+Rp+59xZfpy5QVO524384TNgg8EjF5cFI51FjC1wvrBR69lgiLBHT/RGATgEh5+V8rvCbwmHeGwL15o8BDzYsCY/m+YHLKlkxsXPk2rKRK6Xu50YS1OVsZ85mN1+rypZ+KyMT12w1O7pF8iqtczgZIJIwdLs+gL9XwW1ONg/cVxkSExHsUxKa9RbiLD49YQ18QWMuHeeVjlLd58oBX7meX6eNvfkG+/BRVmLLP52Ny5Szcp4RWwigBuT8LpVJnCSKPnunCEQLE3RmDUN5dgM4StgtEEl8VqNstbBWGClAjgTCRuuuEcug2CbNZoYt7Xjl0koTR84zw4RRgJyg6wTYBnxSim1Rp/HHeJ5iUyJgNRhZSXsW6q9U243pcaJhyP6rlt35uTIxrpjcmHrIpszVhVb9x5dT58/73Xjl2ilJ/FSDz5WhFrm9bqAh0ysXgyroqZdL0cd91SpHBQaVQMwmtFNARXYhjXPm7So8ToPnC1L259363gdwbwqmuzJIRylC31ApKSNnB2YTQA/YITYRSaZYETVdW6fcKdI4T52mvDysK8FLVU1guWF93KM8pV4tEJEk/B2bQuWr57Rw3JsbFWoCIFP4psPh9aqcPNn7z1VWucqBXRh1vOD4RKROJ4eeiGywn8C4BRZuEQvR1VT7hGA5XSviP3LWuLGlCdII8i711RJiIYo5Am0ZEDgPdB5sGstPct5/YLvmOClv4FQnyzcXLNYg2wKsCi60U6iYhNjzTlVVKVNHS6+C5yv9QmCIQWvrt4jvqiJoM8M0W1go+L/mfC7VIPdQp+rdBYC6nSdXyG2NgPdicuVh51sOjwr+EYwWf8LlFfeuUbysQkWwU/ircLWCjNUIbATpbeFFYKbQXitIJ4kAJYJIUIk7UZo7hQqXIsBg/6MqSJDyKWbv3xhS0RcCEYFEgf2kO2a+5OgxNZFAqfUWCGHu1cEGpSiR3jWBjzTLlVDnP6ycTK432iKz6enprKXu5G+OkDDpVLb/ZUL6hDD5lHrMRsEn0F3LRN1XItRw+5ix+XyiwNokEfyxQ95bAIUH9H4SjhVhkCx5BjB6XHhMjMnPjCkT4hjt5dHAPTEKExciBLjkEZ7i653LUhaKDywKE3YTmpAcjHa9BsUaJDlsWGSAHaB/hEuFkIXqd4G1shIA+6hPRneK2RdcxpiSLk50OOUIYiPAlyel9h/iR3yYkpXESQHZ9DkGinq2ufmqO+lAULBAsUMQC3VV/n8DmYLvNk8qz6BYLcWmCGJF5WWAXY3ESno8RosQGYtcVv+4KfaBjlV+YI3+syjpEyu194qFIOZ8jBfS+IeSKNlQcKFggWCCfBfhX16sCiwicL7QRLDIYpXxc4pUUHXYv5C7/psB9yKfv6AP9nPAseJ+66cP6ki+SGSIeIo7rPEE2JsqQneyVkz1G4EGWum8JgYIFggUSWmCw+G1hkg4UWMjklwoswLi0WIzIsbmcImwQxgtR+osKrE02kyjdqwLqWfB++zyw1gk8vkwR2OSM/PcJNqferoKogw2Mh5+bBV+fPgMFCwQLxLFAVzHZomUR9hNeFwjRqUtCg8T8bwH53cJdQi7icXSXQLv352JQGRvMFmGzsEzgxRa9c4S+QpTGqQB98LHRsVm8INAOG8VQIVCwQLBAGRZgUbKgWFwsNv7dcqZQCjWWUB+hRQzhieK5vQhfZ9WfJrQtwjdf9fR9huPj/YMNJclDqhMNSbBAsEA+CxymiiECUUHTfEwpl/9W+i5JQSfXCXufyHWVSaGJoCJYIFigGhbgDYEfgrRKoXF0EU2AE1PQF1QECwQL1IAFuEasEb5dZl/4V+5w4VHBNgr+FdtLCBQsECyQkgX+D5ppf0L3GmmtAAAAAElFTkSuQmCC;" parent="1" vertex="1">
          <mxGeometry x="14" y="426" width="82" height="11.71" as="geometry" />
        </mxCell>
        <mxCell id="2UoVGlsXdKEKuQGdsdA1-5" value="" style="shape=image;verticalLabelPosition=bottom;labelBackgroundColor=default;verticalAlign=top;aspect=fixed;imageAspect=0;image=data:image/png,iVBORw0KGgoAAAANSUhEUgAAAQoAAAAmCAYAAAA80tUwAAABW2lDQ1BJQ0MgUHJvZmlsZQAAKJF1kL1Lw1AUxU9qJaKBKjiJQsDFIUpptepYq6hQMNQP/AAhTdtU6MfrS6wIbrq5+A/o5P+gOOmsmyII7urkIBZBS7wvVdsqXrjcH4fzLvcdwNdmMJbzA8gXHJ6YnlCXV1ZV+QEdkCCjByOGabOorsfJgu/ZXJVb8lJdD4pdkd3ya7Hr6OZZfXq83Ff2/vqbqj2Vtk2aH9RBk3EHkDRifcthgneIuzkdRXwg2KrxseBkjU89z0IiRnxF3GlmjRTxPbGWbNCtBs7nNs2vG8T1SrqwOC/2UPdCxwziUBHCKCKYwhiW/vEPe/4YimDYBscGLGTh0NsoKQw5pIlnUYCJIWjeziB1WOT8O7+6xuaA8TLgM+ra+iRw0g8ESnVtgP4TyAAXa8zgxk+qUsVvZ8KhGiscaH1z3Zc+QD4Dqtx13w9dt0oZttwB56VPyc5iK2/hwVsAAAXiZVhJZk1NACoAAAAIAAQBGgAFAAAAAQAAAD4BGwAFAAAAAQAAAEYBKAADAAAAAQACAACHaQAEAAAAAQAAAE4AAAAAAAAAkAAAAAEAAACQAAAAAQADkoYABwAABWkAAAB4oAIABAAAAAEAAAEKoAMABAAAAAEAAAAmAAAAAEFTQ0lJAAAAQUFBRkFuamFiVk5yYkJ0RkVKNjlUZHNrVGVKTDBrZWF2cTdFZ1lRK2NOSkFnOHNqVHRPMG9ZbjdPRHR4SEx0bQpmVjdiMTV6dnpOMDZpV3RGMmgrb3JSQUk4YXZRSDBBU0lTaEN2QVFWUWdLRUlJQVFpaUNKb0JJQzFGLzlnL3FqCmZ4Q3FrRmcvS0FWMVY2ZWJtZDJaK2VhYjJYalcwQjNtOGF3aUNWZXRXYnV1TnVTZW9yYWpXK2E0bTloYVdoZGEKd00yc2JNaHR4YzlRalRsTmdNNjlHcE5kZnZVWXpkT0VyM0xwaCtxYWdHMVpqS04zNUYzcjY5cnZ2YStqOC83ZAplL2J1ZStEQmc0LzBEVHh4N09TcDhNUnBRcE5uTWxtV0M3ck5uR0dzMURlNDVGYjNtRi9kTjBuelRsajhLMGxHCjNacEJIT2R5WTFQemhvMmJOcmRzNFJMSHZJcXY0V3Y1T2w3TmEzanQ1YTNidHUvWXFleTZwNDJ2NTNXOGdidDQKSTIvbFcvbDJ2b01yb1RoeHFLR2JOS2haaG1VSE1sYUNCcG5PREJySzJwUms0Z2FOWmtqSzFKTzZScGdvTjVBZwpqSXF5NGtTYlRObFd6a3djS2pxR0hTdG5helJBWjFnYlZOYUtwOHZWdmI4bjZGZFBIZW1QK05YU1JUVkxORHJvClVjUUdHZkg2NVljTzlENGNMcGRoa2d3TmxVWHFqRlVjNW51OUliOTZ2RlN2WExYc2V2U3h4OGNGQVE2emRUUEYKNVJNaWdLKy94UE5JamhHQlZ5MmRMUGdPRmYzS3lzcGgxK0NSbzBPM2RRSEd4NFFVenpIcThDYStoVGZINU9WSQp3dEp5R1dxeUVvS0pMaytXUlF2RVpycG0wTm5hU002aEF2c2tTZEVKSVJheE90RkNpYlZacFYxWUVrclNzc1ZuCk1xVmt2ZE9qUURLT2s4L0V4YzBNWVdubi8yZEY0OTNPSm5JczJSc3Q2R1pXSURXMWNxSmt6bENZcGJCOGxpb0oKM1JhOEdIa2hFTTNXQlZaRlN4T2JhRXhNWjIxeGNJYjlKK1pHK0lhNTQzd2pieG4xcTRNQzRLb2FDTHBHeDBMagpRbGYxczFRUWt4dzBTTW9SdWw4VTF0YlhVVzZoTFBOTmZQUG9pR1VTelJKTVI2S1ZDUE1ScjFCalR3b21CM1N0Ck9CakV6cy9IaXNhNEZwT2I3aUE0VWVaOFB1RzlxNzJ0cjd1Y2F6bmxTdXZGR1dlNlFPQmJ6T2VmdjFDbjhHMGkKNUtRaDBnNkl3WnVmOUJhbnl0emZNOWlsaUEyOHZ0amJwNDRPOFozbExuWW1Zd1Y5ajVhZFZieEtaSUFhakNqRApTc1RXVTJsR2JOdWEvc2VvejRpNFU5TXh1Zm4yNFB4YnlNSlV6QXZWMEFpdDRJWk82SVlETUFURGNCSlVtSVpaCmVCcWVoWXZ3TXJ3QmI4SmI4RGE4QysvREIzQUZQb0tQNFV2NENyNkJiK0U3V0lMdllSbFc0VWU0Q3RmZ092d08KTitFV3FrRU5TRUc3VVE4NmlIeklqNEpvREkyajAwaEhOanFMWnRFNWRBRTloeTZpbDlBbDlBcDZEMzJJUGtXTAphQW45akg1QnY2RnIwaFhwRStrejZYUHBDMmxSK2xwYWtuNlNmcFd1U3pla1A2US9wVnZTWDdnSzEyQVpOK01XCjNJNDc4Rjdjancvak1OWndHbWR4SGhjd3grZnhNL2dGL0NLK2hPZndBbjROdjQ1WDhGVjhvOXdFQ1ZVZTd3ejgKWitHYmZ3UDlKSjQ5AMXbmosAAAAJcEhZcwAAFiUAABYlAUlSJPAAAAhRaVRYdFhNTDpjb20uYWRvYmUueG1wAAAAAAA8eDp4bXBtZXRhIHhtbG5zOng9ImFkb2JlOm5zOm1ldGEvIiB4OnhtcHRrPSJYTVAgQ29yZSA2LjAuMCI+CiAgIDxyZGY6UkRGIHhtbG5zOnJkZj0iaHR0cDovL3d3dy53My5vcmcvMTk5OS8wMi8yMi1yZGYtc3ludGF4LW5zIyI+CiAgICAgIDxyZGY6RGVzY3JpcHRpb24gcmRmOmFib3V0PSIiCiAgICAgICAgICAgIHhtbG5zOnRpZmY9Imh0dHA6Ly9ucy5hZG9iZS5jb20vdGlmZi8xLjAvIgogICAgICAgICAgICB4bWxuczpleGlmPSJodHRwOi8vbnMuYWRvYmUuY29tL2V4aWYvMS4wLyI+CiAgICAgICAgIDx0aWZmOllSZXNvbHV0aW9uPjE0NDwvdGlmZjpZUmVzb2x1dGlvbj4KICAgICAgICAgPHRpZmY6WFJlc29sdXRpb24+MTQ0PC90aWZmOlhSZXNvbHV0aW9uPgogICAgICAgICA8dGlmZjpSZXNvbHV0aW9uVW5pdD4yPC90aWZmOlJlc29sdXRpb25Vbml0PgogICAgICAgICA8ZXhpZjpQaXhlbFlEaW1lbnNpb24+Mzg8L2V4aWY6UGl4ZWxZRGltZW5zaW9uPgogICAgICAgICA8ZXhpZjpVc2VyQ29tbWVudD5BQUFGQW5qYWJWTnJiQnRGRUo2OVRkc2tUZUpMMGtlYXZxN0VnWVErY05KQWc4c2pUdE8wb1luN09EdHhITHRtJiN4QTtmVjdiMTV6dnpOMDZpV3RGMmgrb3JSQUk4YXZRSDBBU0lTaEN2QVFWUWdLRUlJQVFpaUNKb0JJQzFGLzlnL3FqJiN4QTtmeENxa0ZnL0tBVjFWNmVibWQyWitlYWIyWGpXMEIzbThhd2lDVmV0V2J1dU51U2VvcmFqVythNG05aGFXaGRhJiN4QTt3TTJzYk1odHhjOVFqVGxOZ002OUdwTmRmdlVZemRPRXIzTHBoK3FhZ0cxWmpLTjM1RjNyNjlydnZhK2o4LzdkJiN4QTtlL2J1ZStEQmc0LzBEVHh4N09TcDhNUnBRcE5uTWxtV0M3ck5uR0dzMURlNDVGYjNtRi9kTjBuelRsajhLMGxHJiN4QTszWnBCSE9keVkxUHpobzJiTnJkczRSTEh2SXF2NFd2NU9sN05hM2p0NWEzYnR1L1lxZXk2cDQydjUzVzhnYnQ0JiN4QTtJMi9sVy9sMnZvTXJvVGh4cUtHYk5LaFpobVVITWxhQ0Jwbk9EQnJLMnBSazRnYU5aa2pLMUpPNlJwZ29ONUFnJiN4QTtqSXF5NGtTYlRObFd6a3djS2pxR0hTdG5helJBWjFnYlZOYUtwOHZWdmI4bjZGZFBIZW1QK05YU1JUVkxORHJvJiN4QTtVY1FHR2ZINjVZY085RDRjTHBkaGtnd05sVVhxakZVYzVudTlJYjk2dkZTdlhMWHNldlN4eDhjRkFRNnpkVFBGJiN4QTs1Uk1pZ0srL3hQTklqaEdCVnkyZExQZ09GZjNLeXNwaDErQ1JvME8zZFFIR3g0UVV6ekhxOENhK2hUZkg1T1ZJJiN4QTt3dEp5R1dxeUVvS0pMaytXUlF2RVpycG0wTm5hU002aEF2c2tTZEVKSVJheE90RkNpYlZacFYxWUVrclNzc1ZuJiN4QTtNcVZrdmRPalFES09rOC9FeGMwTVlXbm4vMmRGNDkzT0puSXMyUnN0NkdaV0lEVzFjcUpremxDWXBiQjhsaW9KJiN4QTszUmE4R0hraEVNM1dCVlpGU3hPYmFFeE1aMjF4Y0liOUorWkcrSWE1NDN3amJ4bjFxNE1DNEtvYUNMcEd4MExqJiN4QTtRbGYxczFRUWt4dzBTTW9SdWw4VTF0YlhVVzZoTFBOTmZQUG9pR1VTelJKTVI2S1ZDUE1ScjFCalR3b21CM1N0JiN4QTtPQmpFenMvSGlzYTRGcE9iN2lBNFVlWjhQdUc5cTcydHI3dWNhem5sU3V2RkdXZTZRT0Jiek9lZnYxQ244RzBpJiN4QTs1S1FoMGc2SXdadWY5QmFueXR6Zk05aWxpQTI4dnRqYnA0NE84WjNsTG5ZbVl3VjlqNWFkVmJ4S1pJQWFqQ2pEJiN4QTtTc1RXVTJsR2JOdWEvc2VvejRpNFU5TXh1Zm4yNFB4YnlNSlV6QXZWMEFpdDRJWk82SVlETUFURGNCSlVtSVpaJiN4QTtlQnFlaFl2d01yd0JiOEpiOERhOEMrL0RCM0FGUG9LUDRVdjRDcjZCYitFN1dJTHZZUmxXNFVlNEN0ZmdPdndPJiN4QTtOK0VXcWtFTlNFRzdVUTg2aUh6SWo0Sm9ESTJqMDBoSE5qcUxadEU1ZEFFOWh5NmlsOUFsOUFwNkQzMklQa1dMJiN4QTthQW45akg1QnY2RnIwaFhwRStrejZYUHBDMmxSK2xwYWtuNlNmcFd1U3pla1A2US9wVnZTWDdnSzEyQVpOK01XJiN4QTszSTQ3OEY3Y2p3L2pNTlp3R21keEhoY3d4K2Z4TS9nRi9DSytoT2Z3QW40TnY0NVg4RlY4bzl3RUNWVWU3d3o4JiN4QTtaK0diZndQOUpKNDk8L2V4aWY6VXNlckNvbW1lbnQ+CiAgICAgICAgIDxleGlmOlBpeGVsWERpbWVuc2lvbj4yNjY8L2V4aWY6UGl4ZWxYRGltZW5zaW9uPgogICAgICA8L3JkZjpEZXNjcmlwdGlvbj4KICAgPC9yZGY6UkRGPgo8L3g6eG1wbWV0YT4Kpp92+QAADJtJREFUeAHtmgvUVUUVx3mICoggCYWAIkQpGvFSlBIIhNI0jTBCVBaGVqvM8FmupHyQmEn6iSxLaimCUEE81mppLyGQkJWVomKGCIIgBAYCimhW/x/OhvGs+zjn3nPuvfDNXuv/zZyZvffM7D2PPfPdBg0CBQsECwQLFLFA4yL1obr2LNBcXWokvFt7XQs9KmCBeum3TjLIROHXwgShnxAoewv0UBNvC1uFo7NvLrSQkgXqpd/OlfGYrHuEWcJK4X/CLUKgbC2wQOqxNbg9g6YWS+cmYZ2wSnhWeEp4WnheeEl4RYDnYSFQPAtk7Td60VIgaqkJ6qZevCUwUccKpwob3fdrSgNlZ4HeUm2bBOlOIe2o4mbpfFB4RDA/W5vbXPlMpfcLXxICFbdAJfxGdI+/tghHFe9S9hwPqAmbpE2Un+6+KVsjBMrOAvOl2hatpUyQrOgJKbZ21ivfKquGDnK9Wfvto7LffwXz1bBq27OtOsCVgw790XXmevdNR690ZSFJ3wK9pBK7c837j8vznUVUIbUNmglcLW3y3UNhoMQWqITfOqlXFv1tV75j4l6mLDBC+mzi3OZ0H6r0s8JH3HdIsrHAPKllM+4h+FEc/jBfKJsaDZYm8zVp1U+p1EZWWUWV8tunNawrhLSvoiVZa5KkbPIML0lDECrFAj2d3ec6YUJN/jVqviCq+ICrSyvhYdr0s0GlrT+tftaynmr4rSbswYu4TZ6uNdGj+tEJNgiLJmzEM5QxX5D+wCpSSpd4+lekpLPSagaowd8JZ1a6YddeNfxWpaHub7ahsjsEJuUuoZEQKHsLcCqxSVg0YS2eoIwfVeCbtE79ptLlv0/UWaMHWDpS/WW+sllUmqrht0qPMWd7RBAYHSzLyREKs7AAP2iLRhPWzsPKmE9IJ1hFmenB8j7RTnbAdmyox5Zpk6TilfBbK3Xqk0Ip74OtJddPOF04RIgSbx0Dhe5CY6EgTVbtS8IaYZPgT0rKAPVjhfpGLKaFwuPCZzIaPA+XTPRoNGHNnahMNKpgApRL/JbCfE37aUUq5farFPkFbiw3liJcokwl/Hat+mb/6cBXy4U4vj9CfA8J/n/O+O3FeIFbw5FC9AB6RWXnCHnpStXMdNip1CbPUq+cRk8T6hOxw64XzB7blacsbSp0Kllb+Mf6QZpGVOG/Ra2whg7QlBMTuzDZ4yykNIaZtd8uVic5INj8WghsEoxxqlCI2PDh3SxcJiB7hsAPJZG/QXhM2CFcJHQQNgjUbRNi0TxxIQBOiSVx8DK1cXYwe7yp7yYpD/fj0lcomrDm+KUsk8b68rry5SyIppLf4+mrU/5Ap0UaAPbh16acmllS1n47Xp3fLdztDWKJ8oxvtVcWzTJu+Ige+K+ZT5P0YfOHlJ87QPYbKat7r7TI35dVjwAhC5OpvhOTzgzIz5nTpjlSyEZBGFuMZonB+kJ6azGBAvWDIrqGFeA9UKq6qKOciNgmjYir0Liz9hsbBGPhB3FQS8E29hV7S3L/Ga1ixj80R/V3XR31i7z6H3nlhXTvE2ntCTy7r7R+Z7hq9BeyiK66S2+caMI8cJIy0ajiKKtMmB5M7xP+0M/Shy0o7uDN/cqU8ln77VD1k4hxitffMcqzwME9Xnk0+4wKlkcL3fc0paZjtMfDVWWiwHsIj5tFyT9lphfl3s8wStm1wtX7i0IuhgVmiyduNGHqfqGMOZv0FqtImC729MQ6RRLqz8XOom1XATAfzUarlL9QaCSkRVn7jWsHB0Jvr8MLlbcxDfHK/ezh+uDhk80yFz2vQtPRPhdD3LKrPEXXxBUSH86gA+zggeJZIOmpZFqJKthczOGcPEmjiqaSsVMXPXVCXOKN5mdC57gCjg/+twXrd6XTF9Q20WG5VCm/HeJ1lI3DfM7TQKFNL98YeW8zHazXvOQ3nI+pp1fxdy9fLMup9gmB8CVQPAvc6Nhuise+j+s55TjRLnAlRyodJ4x333GS08VEeGu0yDIx0i+K51KBe20S2ixmHsrbJhEqg3eAJ7tLeQ4xTulyqVJ+443QaLQyDd3Hg0pZ8Pko3xj7S8B0LMonHLec+43t9NxbAmVjgY9JLc6eW6L6k528+Yp/27ZKoIvNyWTpRxJfLxV/kkMkQbdSY71Dmhgfi+0+4UNCGlQNv7G41wrmry4lDmSyp+OiEnXsFeN+845Ttq4cRUG2qAV+KQ4WaJz/dORT9itV2OQhZfHHpT+J0WSTvE9wZ0aOK2qt0p3qGH3kX9lnp9zJavhtkBsPY1pSxnj894kOZejZ+6pvk2dBTEXsbucLrWPyx2Vr7/R+TmnHPEJ9VX6e4L/Ssvv2EoYJxwm1SBYNlBpN2JjsdDOfxY0q7MHL5OpMYZGUq+uTAqd0Wid0kSYTV+N3xrVTGJBYurBAtfw2Td0yX431unir8j/1vgtlj1Gl6Vidh3Gwyv+Rp+59xZfpy5QVO524384TNgg8EjF5cFI51FjC1wvrBR69lgiLBHT/RGATgEh5+V8rvCbwmHeGwL15o8BDzYsCY/m+YHLKlkxsXPk2rKRK6Xu50YS1OVsZ85mN1+rypZ+KyMT12w1O7pF8iqtczgZIJIwdLs+gL9XwW1ONg/cVxkSExHsUxKa9RbiLD49YQ18QWMuHeeVjlLd58oBX7meX6eNvfkG+/BRVmLLP52Ny5Szcp4RWwigBuT8LpVJnCSKPnunCEQLE3RmDUN5dgM4StgtEEl8VqNstbBWGClAjgTCRuuuEcug2CbNZoYt7Xjl0koTR84zw4RRgJyg6wTYBnxSim1Rp/HHeJ5iUyJgNRhZSXsW6q9U243pcaJhyP6rlt35uTIxrpjcmHrIpszVhVb9x5dT58/73Xjl2ilJ/FSDz5WhFrm9bqAh0ysXgyroqZdL0cd91SpHBQaVQMwmtFNARXYhjXPm7So8ToPnC1L259363gdwbwqmuzJIRylC31ApKSNnB2YTQA/YITYRSaZYETVdW6fcKdI4T52mvDysK8FLVU1guWF93KM8pV4tEJEk/B2bQuWr57Rw3JsbFWoCIFP4psPh9aqcPNn7z1VWucqBXRh1vOD4RKROJ4eeiGywn8C4BRZuEQvR1VT7hGA5XSviP3LWuLGlCdII8i711RJiIYo5Am0ZEDgPdB5sGstPct5/YLvmOClv4FQnyzcXLNYg2wKsCi60U6iYhNjzTlVVKVNHS6+C5yv9QmCIQWvrt4jvqiJoM8M0W1go+L/mfC7VIPdQp+rdBYC6nSdXyG2NgPdicuVh51sOjwr+EYwWf8LlFfeuUbysQkWwU/ircLWCjNUIbATpbeFFYKbQXitIJ4kAJYJIUIk7UZo7hQqXIsBg/6MqSJDyKWbv3xhS0RcCEYFEgf2kO2a+5OgxNZFAqfUWCGHu1cEGpSiR3jWBjzTLlVDnP6ycTK432iKz6enprKXu5G+OkDDpVLb/ZUL6hDD5lHrMRsEn0F3LRN1XItRw+5ix+XyiwNokEfyxQ95bAIUH9H4SjhVhkCx5BjB6XHhMjMnPjCkT4hjt5dHAPTEKExciBLjkEZ7i653LUhaKDywKE3YTmpAcjHa9BsUaJDlsWGSAHaB/hEuFkIXqd4G1shIA+6hPRneK2RdcxpiSLk50OOUIYiPAlyel9h/iR3yYkpXESQHZ9DkGinq2ufmqO+lAULBAsUMQC3VV/n8DmYLvNk8qz6BYLcWmCGJF5WWAXY3ESno8RosQGYtcVv+4KfaBjlV+YI3+syjpEyu194qFIOZ8jBfS+IeSKNlQcKFggWCCfBfhX16sCiwicL7QRLDIYpXxc4pUUHXYv5C7/psB9yKfv6AP9nPAseJ+66cP6ki+SGSIeIo7rPEE2JsqQneyVkz1G4EGWum8JgYIFggUSWmCw+G1hkg4UWMjklwoswLi0WIzIsbmcImwQxgtR+osKrE02kyjdqwLqWfB++zyw1gk8vkwR2OSM/PcJNqferoKogw2Mh5+bBV+fPgMFCwQLxLFAVzHZomUR9hNeFwjRqUtCg8T8bwH53cJdQi7icXSXQLv352JQGRvMFmGzsEzgxRa9c4S+QpTGqQB98LHRsVm8INAOG8VQIVCwQLBAGRZgUbKgWFwsNv7dcqZQCjWWUB+hRQzhieK5vQhfZ9WfJrQtwjdf9fR9huPj/YMNJclDqhMNSbBAsEA+CxymiiECUUHTfEwpl/9W+i5JQSfXCXufyHWVSaGJoCJYIFigGhbgDYEfgrRKoXF0EU2AE1PQF1QECwQL1IAFuEasEb5dZl/4V+5w4VHBNgr+FdtLCBQsECyQkgX+D5ppf0L3GmmtAAAAAElFTkSuQmCC;" parent="1" vertex="1">
          <mxGeometry x="144" y="426" width="82" height="11.71" as="geometry" />
        </mxCell>
        <mxCell id="2UoVGlsXdKEKuQGdsdA1-6" value="&lt;font style=&quot;&quot;&gt;&lt;font style=&quot;font-size: 12px;&quot;&gt;CHIR,TKN&lt;/font&gt;&lt;br&gt;&lt;/font&gt;" style="rounded=1;whiteSpace=wrap;html=1;strokeWidth=2;fillColor=#f5f5f5;fontColor=#333333;strokeColor=#666666;" parent="1" vertex="1">
          <mxGeometry x="-114" y="168" width="69" height="40" as="geometry" />
        </mxCell>
        <mxCell id="2UoVGlsXdKEKuQGdsdA1-7" value="" style="endArrow=classic;html=1;rounded=0;exitX=0.5;exitY=1;exitDx=0;exitDy=0;entryX=0.5;entryY=0;entryDx=0;entryDy=0;" parent="1" source="2UoVGlsXdKEKuQGdsdA1-6" target="U_fhGjFR6v54zvVVLQxr-1" edge="1">
          <mxGeometry width="50" height="50" relative="1" as="geometry">
            <mxPoint x="100" y="210" as="sourcePoint" />
            <mxPoint x="150" y="160" as="targetPoint" />
          </mxGeometry>
        </mxCell>
        <mxCell id="2UoVGlsXdKEKuQGdsdA1-8" value="(2) Deposit" style="edgeLabel;html=1;align=center;verticalAlign=middle;resizable=0;points=[];" parent="2UoVGlsXdKEKuQGdsdA1-7" vertex="1" connectable="0">
          <mxGeometry x="-0.04" y="2" relative="1" as="geometry">
            <mxPoint x="-2" y="-3" as="offset" />
          </mxGeometry>
        </mxCell>
        <mxCell id="hcQGTuIwQDiOMuR5q1FZ-1" value="" style="endArrow=classic;html=1;rounded=0;exitX=0.5;exitY=1;exitDx=0;exitDy=0;entryX=0.5;entryY=0;entryDx=0;entryDy=0;" parent="1" source="78VV7k429JzxsWAByb5Z-10" target="2UoVGlsXdKEKuQGdsdA1-6" edge="1">
          <mxGeometry width="50" height="50" relative="1" as="geometry">
            <mxPoint x="-210" y="200" as="sourcePoint" />
            <mxPoint x="-160" y="150" as="targetPoint" />
          </mxGeometry>
        </mxCell>
        <mxCell id="hcQGTuIwQDiOMuR5q1FZ-3" value="" style="shape=curlyBracket;whiteSpace=wrap;html=1;rounded=1;flipH=1;labelPosition=right;verticalLabelPosition=middle;align=left;verticalAlign=middle;" parent="1" vertex="1">
          <mxGeometry x="45" y="95" width="20" height="120" as="geometry" />
        </mxCell>
        <mxCell id="hcQGTuIwQDiOMuR5q1FZ-4" value="SwapDeposit" style="text;html=1;strokeColor=none;fillColor=none;align=center;verticalAlign=middle;whiteSpace=wrap;rounded=0;" parent="1" vertex="1">
          <mxGeometry x="70" y="140" width="80" height="30" as="geometry" />
        </mxCell>
      </root>
    </mxGraphModel>
  </diagram>
</mxfile>
